<?xml version="1.0" encoding="UTF-8" standalone="no"?>
<svg
   xmlns:dc="http://purl.org/dc/elements/1.1/"
   xmlns:cc="http://creativecommons.org/ns#"
   xmlns:rdf="http://www.w3.org/1999/02/22-rdf-syntax-ns#"
   xmlns:svg="http://www.w3.org/2000/svg"
   xmlns="http://www.w3.org/2000/svg"
   xmlns:xlink="http://www.w3.org/1999/xlink"
   xmlns:sodipodi="http://sodipodi.sourceforge.net/DTD/sodipodi-0.dtd"
   xmlns:inkscape="http://www.inkscape.org/namespaces/inkscape"
   width="210mm"
   height="297mm"
   viewBox="0 0 210 297"
   version="1.1"
   id="svg670"
   inkscape:version="1.0.1 (3bc2e813f5, 2020-09-07)"
   sodipodi:docname="stealie.svg">
  <defs
     id="defs664">
    <clipPath
       clipPathUnits="userSpaceOnUse"
       id="clipPath821">
      <use
         x="0"
         y="0"
         xlink:href="#g817"
         id="use823" />
    </clipPath>
  </defs>
  <sodipodi:namedview
     id="base"
     pagecolor="#ffffff"
     bordercolor="#666666"
     borderopacity="1.0"
     inkscape:pageopacity="0.0"
     inkscape:pageshadow="2"
     inkscape:zoom="0.35"
     inkscape:cx="400"
     inkscape:cy="217.14286"
     inkscape:document-units="mm"
     inkscape:current-layer="layer1"
     inkscape:document-rotation="0"
     showgrid="false"
     inkscape:window-width="2472"
     inkscape:window-height="1417"
     inkscape:window-x="-8"
     inkscape:window-y="-8"
     inkscape:window-maximized="1" />
  <metadata
     id="metadata667">
    <rdf:RDF>
      <cc:Work
         rdf:about="">
        <dc:format>image/svg+xml</dc:format>
        <dc:type
           rdf:resource="http://purl.org/dc/dcmitype/StillImage" />
        <dc:title></dc:title>
      </cc:Work>
    </rdf:RDF>
  </metadata>
  <g
     inkscape:label="Layer 1"
     inkscape:groupmode="layer"
     id="layer1">
    <g
       id="g819"
       clip-path="url(#clipPath821)">
      <g
         inkscape:label="Clip"
         id="g817">
        <path
           class="st0"
           d="M 107.97922,219.42285 C 90.924977,219.62736 75.00939,215.31597 60.027774,207.3454 56.535062,205.49027 53.170295,203.43052 49.946239,201.12761 38.956313,193.24655 29.744728,183.67675 22.465014,172.25184 17.245115,164.06378 13.27901,155.31278 10.5283,146.01163 8.9162961,140.57423 7.6880855,135.04728 6.9844252,129.41798 6.0632681,122.21504 6.0376884,114.9993 6.6643174,107.75793 7.3296314,100.08161 8.9672143,92.59721 11.372476,85.304729 13.80332,77.922648 16.98898,70.873247 21.083034,64.233217 c 3.236819,-5.25829 6.857482,-10.222295 11.002693,-14.802508 8.456765,-9.365108 18.282457,-16.964691 29.630596,-22.542802 6.58887,-3.236867 13.369612,-5.949134 20.470221,-7.804267 6.141059,-1.599236 12.41006,-2.379634 18.742986,-2.853026 10.55497,-0.793212 20.86683,0.57571 31.06354,3.160081 6.12824,1.548078 11.97507,3.889367 17.65553,6.640029 16.55523,7.996186 29.6562,19.907274 39.84007,35.106385 4.27317,6.371322 7.67633,13.203272 10.40142,20.367805 5.15592,13.599877 7.45882,27.673146 6.64003,42.194176 -0.85719,15.36546 -4.72093,29.97606 -12.10301,43.53753 -6.10266,11.19467 -13.7918,21.14829 -23.65583,29.33635 -9.27556,7.68911 -19.45949,13.83015 -30.8972,17.7067 -8.63588,2.92981 -17.50202,4.91285 -26.6752,5.14318 -1.74001,0.0388 -3.47995,0 -5.21989,0 z M 94.711973,74.90328 c -0.06386,0.0387 -0.140715,0.07689 -0.204542,0.128135 -1.842307,1.241026 -3.889368,2.14937 -5.616493,3.633476 7.087783,-0.498973 14.150012,-0.921159 21.276192,-0.882765 -0.21758,0.29448 -0.4734,0.511739 -0.74205,0.703658 -5.01521,3.531108 -10.043188,7.023821 -15.032818,10.580508 -5.411776,3.863741 -11.028279,7.43324 -16.260991,11.565688 -0.255798,0.20454 -0.588526,0.35831 -0.729239,0.7804 6.703953,0.0387 13.292819,-0.66527 19.932848,-1.18982 -7.126177,6.39695 -14.917686,11.97506 -21.647218,18.80696 4.836058,-0.0512 9.595376,-0.47339 14.482635,-0.86994 -0.140716,0.28141 -0.178909,0.38392 -0.243224,0.48615 -2.238918,3.6974 -4.490654,7.39485 -6.716763,11.10506 -3.121736,5.20714 -6.179448,10.45261 -8.354398,16.15866 -0.140715,0.35831 -0.524553,0.8188 -0.243225,1.10027 0.293997,0.29448 0.754818,-0.1025 1.113078,-0.2558 4.989585,-2.04699 10.004797,-4.04284 15.186301,-5.59092 0.97232,-0.29401 1.995845,-0.48615 3.032129,-1.10026 -1.010714,-0.52456 -1.893472,-0.98513 -2.776232,-1.44572 0,-0.0638 -0.02412,-0.0895 -0.08948,-0.0895 -0.383926,-0.17891 -0.754854,-0.37087 -1.138656,-0.55012 -0.06386,-0.0387 -0.128129,-0.0638 -0.178908,-0.1025 -0.05124,-0.0242 -0.115108,-0.0512 -0.166337,-0.0769 -0.06386,-0.0388 -0.128141,-0.0638 -0.191969,-0.1025 -0.166349,-0.0768 -0.345257,-0.15378 -0.511794,-0.23018 -0.03874,-0.0895 -0.102487,-0.12813 -0.204543,-0.0895 -0.115106,-0.0639 -0.243223,-0.11511 -0.358305,-0.17891 -0.01437,-0.0895 -0.02412,-0.19197 -0.03874,-0.28143 0.332673,-0.16634 0.665307,-0.35831 1.010752,-0.49898 5.885162,-2.39244 11.770317,-4.77208 17.655537,-7.16453 0.46034,-0.19197 0.97232,-0.33268 1.38175,-0.75487 -3.49278,-1.01071 -6.98549,-1.67596 -10.452617,-2.50757 10.324657,-5.05356 20.751647,-9.80012 30.833227,-15.2247 -7.31812,-0.72923 -14.6234,-0.23016 -21.91588,-0.71647 10.60609,-6.35856 21.4937,-12.154166 31.4217,-19.549012 -8.48234,-0.29448 -16.91348,0.178912 -25.38302,0.02417 10.08159,-6.332977 20.21433,-12.538007 30.15516,-19.485088 -7.15177,-1.023478 -14.16283,-1.471292 -21.03312,-2.942582 0.0637,-0.358309 0.2558,-0.447764 0.40955,-0.562898 3.00656,-2.238971 5.92357,-4.580211 8.84056,-6.934316 3.50553,-2.827449 7.17734,-5.437398 10.52937,-8.443952 0.56293,-0.511739 1.08743,-1.061871 1.63761,-1.586424 -4.50348,0.332681 -8.73824,1.586424 -13.26722,2.597135 3.4927,-5.897928 6.5888,-11.706351 9.46741,-17.655537 -5.41178,1.867946 -10.54211,4.158026 -15.74924,6.857529 2.98097,0.678079 5.78284,1.100265 8.50792,2.008659 -4.61855,2.034188 -9.23715,3.978872 -13.88135,5.872346 -4.66977,1.906292 -9.17318,4.170842 -13.7918,6.256239 3.09617,0.857184 6.23062,1.458476 9.33953,2.110974 3.13451,0.652502 6.32017,1.036293 9.55704,1.45848 -0.26885,0.447764 -0.6397,0.486205 -0.93397,0.639731 -5.10471,2.456424 -10.22231,4.861638 -15.30143,7.382034 -2.9938,1.484104 -5.89799,3.134502 -8.840567,4.708159 -0.06386,0.03869 -0.115108,0.07689 -0.17891,0.115081 -0.153288,0.08946 -0.319624,0.178913 -0.473387,0.268853 -0.06386,0.03869 -0.140715,0.07689 -0.204543,0.115082 -0.204542,0.115081 -0.396511,0.230168 -0.601341,0.345252 -0.128142,-0.02417 -0.230176,0.01444 -0.28143,0.140715 -0.12813,0.07689 -0.255797,0.140715 -0.370879,0.217597 -0.140715,-0.01444 -0.255797,0.02417 -0.307051,0.166339 -0.115106,0.06383 -0.230176,0.140715 -0.345257,0.204541 -0.178909,-0.03868 -0.307052,0.02417 -0.370878,0.191969 -0.217591,0.08946 -0.435194,0.204539 -0.639686,0.332681 z m 54.002897,-46.057922 -0.0143,-0.0387 0.0143,0.0387 c 4.6058,3.40316 8.9557,7.087793 12.83224,11.335374 4.45228,4.874451 8.20088,10.222295 11.27142,16.030719 3.47993,6.588822 5.94913,13.523137 7.36925,20.854012 0.72925,3.774186 1.22823,7.561188 1.42015,11.386533 0.24321,4.964004 0.0242,9.928057 -0.6909,14.853664 -0.95955,6.64003 -2.73789,13.06256 -5.41182,19.21643 -1.97022,4.5546 -3.90209,9.12199 -5.46298,13.84297 -1.77834,5.38617 -2.76347,10.88754 -2.92977,16.55525 -0.0637,2.13656 0.1025,4.28594 -0.10249,6.4225 -0.37088,3.88935 -1.82955,7.15175 -5.29667,9.30113 -1.6888,1.04912 -3.58227,1.47134 -5.4374,2.03424 -0.40956,0.12817 -0.75482,0.20452 -0.7804,0.75486 -0.0895,2.2645 -0.53736,4.49061 -0.93397,6.71678 -0.55014,3.13449 -1.0747,6.24341 -2.80187,9.08361 -1.88066,3.09614 -4.55458,4.68261 -8.03453,5.15593 -2.67392,0.37089 -5.33503,0.0388 -7.9962,-0.12817 -0.72922,-0.0388 -1.177,0.0512 -1.48405,0.80604 -0.55014,1.40732 -1.18982,2.77623 -1.8423,4.13239 -1.04912,2.1622 -2.20054,4.28599 -2.00868,6.81913 0.21761,3.01938 -1.21538,5.2583 -3.62064,6.78075 -1.50969,0.94679 -2.39246,2.21334 -3.05773,3.74861 -0.1025,0.23017 -0.38393,0.47338 -0.23016,0.70366 0.16633,0.2558 0.48614,0.0388 0.72924,0 5.10477,-0.8572 10.08157,-2.21335 14.98161,-3.90213 5.1815,-1.77835 10.11992,-4.06844 14.86648,-6.79351 5.39901,-3.09611 10.51653,-6.58887 15.26309,-10.64454 3.62066,-3.0961 6.98543,-6.40971 10.08153,-10.01755 3.51834,-4.09406 6.6656,-8.46958 9.55703,-13.02416 3.50553,-5.5142 6.32016,-11.37377 8.54631,-17.50202 2.48201,-6.83195 4.31151,-13.83018 5.29664,-21.0587 0.57578,-4.20918 0.87,-8.41837 0.97238,-12.65313 0.077,-3.13451 -0.0895,-6.26901 -0.33267,-9.39069 -0.30708,-3.8254 -0.80604,-7.6124 -1.56086,-11.373774 -0.90839,-4.490659 -2.1238,-8.904531 -3.62066,-13.254428 -2.29008,-6.640031 -5.20708,-12.973007 -8.7894,-19.011697 -3.9149,-6.627214 -8.58466,-12.691531 -13.93251,-18.218482 -2.4436,-2.533162 -5.02797,-4.90003 -7.71472,-7.164532 -5.30946,-4.46508 -11.05389,-8.277661 -17.14375,-11.578455 -0.58853,-0.358308 -1.20262,-0.793261 -1.97027,-0.81884 z m 17.10541,105.140012 -0.0142,-0.0144 c 0.12817,0.40956 -0.10249,0.72923 -0.2432,1.07467 -0.75489,1.91911 -1.70162,3.76143 -2.68676,5.56535 -1.35614,2.48201 -2.34124,5.02798 -2.36687,7.93222 -0.0242,2.77625 0,5.57811 -0.47338,8.34159 -0.43518,2.5588 -1.35616,4.81047 -3.72297,6.19221 -0.15324,0.0895 -0.28143,0.21761 -0.39651,0.33269 -0.2558,0.2558 -0.52456,0.57575 -0.30706,0.92115 0.2176,0.35832 0.57571,0.077 0.85719,-0.0242 3.44155,-1.30496 5.51413,-4.49061 5.34778,-8.25204 -0.0895,-1.99584 -0.30704,-4.0045 -0.33267,-6.00036 -0.0242,-1.7527 0.46033,-3.41592 1.47134,-4.90003 -0.57576,2.34129 -0.30706,4.66979 -0.0769,7.01106 0.12817,1.33054 0.26886,2.66111 0.38396,3.99169 0.19197,2.21336 -0.39652,4.19638 -1.7656,5.94914 -0.63967,0.83162 -1.33058,1.61201 -2.09821,2.32848 -0.71642,0.67807 -1.49685,1.27937 -2.31565,1.84232 -0.1407,0.1025 -0.34527,0.19195 -0.29449,0.39651 0.0637,0.26884 0.31962,0.19196 0.51173,0.17891 0.20455,0 0.40957,-0.0388 0.6013,-0.077 2.89143,-0.65249 4.91285,-2.35404 5.85963,-5.15591 0.6013,-1.79117 0.86996,-3.65907 0.742,-5.57813 -0.17891,-2.60993 -0.15323,-5.23271 0.16634,-7.82984 0.62693,-5.23271 2.39251,-10.14556 4.18362,-15.05839 1.58646,-4.36272 3.63348,-8.53353 5.37341,-12.83226 5.01523,-12.39724 6.49932,-25.255065 4.70816,-38.471151 C 177.30721,69.86175 172.97008,58.897402 165.95902,49.046084 159.34461,39.744947 151.18215,32.10702 141.06216,26.74641 127.4751,19.556249 113.05639,16.741566 97.742138,18.903749 80.867047,21.28343 66.780963,29.023677 55.023403,41.203471 c -4.759319,4.92561 -8.571898,10.529348 -11.731981,16.580852 -2.520395,4.836057 -4.426638,9.889665 -5.821189,15.173535 -1.675975,6.396901 -2.213343,12.908982 -2.430842,19.485038 -0.178912,5.424585 0.320108,10.785244 1.113078,16.145854 0.767631,5.07918 2.110976,9.99203 4.157977,14.71295 1.548079,3.54392 3.121737,7.06222 4.708161,10.59333 1.765579,3.92772 2.878607,7.98336 2.430842,12.33327 -0.204539,1.99584 -0.498973,3.97892 -0.780446,5.96195 -0.128135,0.94674 -0.281423,1.89352 -0.153276,2.86585 0.511786,3.86374 2.36687,7.02382 5.335079,9.48025 1.023476,0.84441 2.226109,1.57365 3.825345,1.53527 -0.191967,-0.24324 -0.307053,-0.40958 -0.447765,-0.53733 -2.072631,-1.94469 -3.723026,-4.22201 -5.309451,-6.55048 -2.200576,-3.24964 -2.968208,-6.65281 -1.63763,-10.49095 0.614105,-1.74 1.189818,-3.51836 1.407317,-5.38625 0.550133,-4.66977 -0.409565,-8.95569 -3.057715,-12.92181 -4.119608,-6.16662 -6.60161,-13.02415 -8.034555,-20.27829 -0.255798,-1.31776 -0.575712,-2.64829 -0.358309,-4.24752 0.524553,1.177 0.754818,2.21334 0.985132,3.23681 1.125844,4.91284 2.673922,9.67217 5.091951,14.12442 2.07263,3.79983 4.426686,7.43324 6.729583,11.0923 1.778342,2.82745 2.251735,5.92356 1.88071,9.19877 -0.230168,2.07263 -1.241026,3.85098 -2.008657,5.73169 -0.511739,1.2538 -0.94674,2.50759 -0.652498,3.88932 0.678077,3.14733 2.725128,5.10477 5.6165,6.269 0.217597,0.0895 0.435195,0.16635 0.729288,0.0387 -0.178912,-0.20454 -0.345254,-0.39651 -0.511787,-0.60129 -1.036291,-1.25365 -2.110975,-2.46903 -3.032134,-3.82521 -1.215396,-1.81671 -1.356158,-3.72302 -0.498974,-5.71886 0.345253,-0.79322 0.690894,-1.59925 0.985133,-2.41804 0.652499,-1.76557 1.394552,-3.51834 1.407317,-5.43739 0.01444,-1.98303 -0.550131,-3.83816 -1.317764,-5.64208 -0.268853,-0.63969 -0.652451,-1.27943 -0.626872,-1.98308 0.02417,-0.72924 -0.281424,-1.26657 -0.665312,-1.8295 C 47.718288,124.99099 44.123205,117.6857 41.93549,109.75348 39.299915,100.18368 38.852148,90.473127 40.400227,80.660252 41.96107,70.757775 45.492179,61.622976 50.99355,53.255763 56.315765,45.170071 63.160481,38.670755 71.259034,33.425277 c 8.533506,-5.52695 17.80906,-8.917297 27.903415,-10.171136 5.770031,-0.716423 11.527251,-0.639685 17.271701,0.16634 8.16248,1.138659 15.87719,3.646241 23.11851,7.586768 4.90009,2.661109 9.32678,5.98753 13.39519,9.787297 7.94499,7.420475 13.93251,16.158666 17.77067,26.342566 4.96406,13.164927 6.00035,26.636857 2.92981,40.339098 -3.76141,16.79831 -12.48679,30.47497 -26.39377,40.76124 -3.77419,2.78907 -7.80422,5.11753 -12.07737,7.02383 -7.15178,3.16009 -14.63618,5.10476 -22.45326,5.59093 -3.12167,0.19196 -5.06637,1.70158 -6.10266,4.5802 -0.33268,0.90834 -0.49898,1.84233 -0.67809,2.78907 -0.0388,0.20452 -0.0895,0.43518 -0.34524,0.43518 -0.26886,0 -0.28143,-0.24322 -0.31963,-0.43518 -0.0769,-0.51176 -0.12814,-1.03631 -0.23017,-1.54804 -0.46082,-2.3541 -1.16424,-4.54182 -3.7358,-5.45021 -1.317761,-0.47341 -2.673921,-0.81879 -4.04289,-1.04912 -10.260684,-1.72713 -19.60017,-5.65488 -28.108094,-11.60402 -5.130346,-3.58227 -9.544217,-7.94499 -13.535903,-12.7427 -0.191969,-0.23018 -0.293997,-0.58853 -0.754867,-0.58853 0.02417,0.72929 0.332682,1.35615 0.588527,1.99584 0.383937,0.94679 0.703658,1.90631 0.84437,2.917 0.39651,2.90424 -0.345252,5.6549 -1.151424,8.3928 -0.422137,1.4329 -0.268851,2.78906 0.524553,4.00452 1.100263,1.67596 2.290081,3.28802 3.787001,4.64411 2.609949,2.36689 5.462977,4.01734 9.237163,3.65908 3.198475,-0.2945 6.435296,-0.16635 9.659351,0.12816 3.198474,0.29448 6.320162,0.88281 9.313952,2.0854 3.902128,1.56088 7.471585,3.72302 11.041091,5.89798 1.54808,0.94672 2.11096,2.7763 1.36897,4.46508 -0.537365,1.22821 -0.793261,2.48199 -0.511793,3.81257 0.08948,0.42214 0.178921,0.89559 -0.370879,1.11304 -0.575709,0.23017 -1.228218,0.46033 -1.752759,0.0637 -0.447766,-0.33268 0.07687,-0.78039 0.12813,-1.177 0.294003,-2.07262 -0.307051,-4.03007 -0.882759,-5.97474 -0.140715,-0.46035 -0.511744,-0.34527 -0.857189,-0.14071 -1.752771,1.02351 -3.646244,1.47127 -5.667659,1.42012 -3.633479,-0.0895 -7.25414,-0.16633 -10.887613,-0.25579 -0.84437,-0.0242 -1.688791,-0.0769 -2.46919,0.35832 -0.754866,0.43518 -1.074683,1.11306 -1.061918,1.95744 0.01444,0.79321 0.716471,0.80602 1.228211,1.02352 0.102519,0.0388 0.230169,0.0512 0.243225,0.23018 -0.293997,0.3965 -0.754819,0.40955 -1.164238,0.28143 -1.356158,-0.44777 -2.379635,0.19195 -3.339187,0.98512 -1.714371,1.43289 -1.612052,3.2752 -1.125892,5.19431 0.358308,1.39451 1.292183,2.37963 2.379682,3.23682 0.959552,0.75487 1.944684,1.42015 3.275215,1.16424 0.626918,-0.1151 1.100263,0.23017 1.496919,0.69089 0.959503,1.08746 2.200529,1.79111 3.454319,2.4692 1.599237,0.86999 3.326422,0.63972 5.027978,0.56294 0.729291,-0.0388 1.10027,0.20453 1.10027,0.97232 0.03874,3.95334 1.420123,7.56118 2.878654,11.14344 0.908343,2.25174 1.087451,2.21336 3.1345,0.93398 2.187714,-1.35615 3.595077,-1.24102 5.437396,0.49898 0.396507,0.38394 0.754817,0.39651 1.253787,0.20453 1.18982,-0.44777 1.79112,-0.2558 2.55874,0.78042 0.24323,0.31962 0.49897,0.65249 0.72929,0.98513 0.67808,0.98512 0.7804,1.0107 1.72713,0.2432 0.84442,-0.67807 1.7272,-1.27935 2.82746,-1.48404 0.60133,-0.11522 1.18986,-0.0895 1.59923,0.3965 0.46034,0.55013 1.10027,0.84439 1.59923,1.34334 0.32012,0.31962 0.58853,0.26886 0.88277,-0.0388 0.49897,-0.52457 0.99795,-1.04911 1.54809,-1.52245 0.62692,-0.55019 1.29217,-1.03635 2.16217,-0.37089 0.30705,0.23018 0.66527,0.17891 0.97232,-0.0512 1.80393,-1.33058 3.46713,-2.81468 4.66977,-4.73374 0.25579,-0.40955 0.37087,-1.08749 0.90835,-1.03629 0.52455,0.0512 0.43517,0.72923 0.56294,1.15143 0.0769,0.24323 0.12817,0.52455 0.46083,0.56293 0.31961,0.0388 0.56293,-0.0895 0.75481,-0.33267 0.3583,-0.4734 0.51178,-1.03633 0.63968,-1.59923 0.0637,-0.28143 0.1025,-0.62693 0.43519,-0.69088 0.79326,-0.15372 0.81884,-0.70367 0.74206,-1.33055 -0.1025,-0.80601 -0.23017,-1.61205 -0.30706,-2.41806 -0.0895,-0.81881 -0.51174,-1.15143 -1.33052,-1.11305 -1.16429,0.0512 -2.32853,0.0637 -3.47996,0.0512 -0.49897,0 -1.02351,0.0388 -1.61204,-0.37087 3.16008,-1.15148 5.85962,-2.92981 8.75099,-4.33714 0.63975,-0.30705 1.31777,-0.31962 2.03426,-0.12817 2.55878,0.70365 5.14315,0.83159 7.76585,0.37088 2.27732,-0.40957 3.94054,-1.59925 4.73375,-3.8254 0.90834,-2.55874 1.35616,-5.21989 1.6504,-7.90659 0.0895,-0.81879 -0.2176,-1.4841 -1.02349,-1.84231 -0.6653,-0.29448 -1.33058,-0.58853 -1.98307,-0.89557 -0.28143,-0.12818 -0.69085,-0.19197 -0.66527,-0.58853 0.0388,-0.37088 0.43521,-0.40956 0.74206,-0.51173 0.14071,-0.0512 0.28143,-0.077 0.42214,-0.11524 1.88065,-0.35829 3.76138,-0.70364 5.64208,-1.06192 0.67808,-0.12816 1.36892,-0.26884 2.02142,-0.48614 0.40957,-0.14069 1.02352,-0.37089 0.84442,-0.90835 -0.15322,-0.47338 -0.74206,-0.47338 -1.22822,-0.37088 -1.25383,0.26886 -2.52039,0.39651 -3.7998,0.4734 -1.94464,0.12816 -3.88932,0.23016 -5.82119,0.42214 -6.06432,0.5757 -12.1286,1.31776 -18.23124,1.42012 -2.20058,0.0388 -4.41393,0.12817 -6.61446,-0.0388 -0.97232,-0.077 -1.94468,-0.34524 -2.37963,-1.34339 -0.42215,-0.98513 0.077,-1.80392 0.67807,-2.54598 1.93187,-2.4052 4.37547,-4.1324 7.24132,-5.25828 3.19847,-1.2538 6.53766,-1.81669 9.94081,-2.03418 3.47996,-0.23017 6.9087,0.0242 10.22232,1.21538 1.88069,0.67808 3.81257,1.2538 5.65488,2.02143 3.60786,1.4841 7.86825,-0.94674 9.3779,-3.47992 1.21542,-2.02145 1.61203,-4.27314 1.80395,-6.57603 0.30707,-3.59509 0.53732,-7.20299 2.29009,-10.47821 1.33058,-2.49481 2.76347,-4.95124 4.15803,-7.42041 0.53732,-0.84443 1.03628,-1.62482 1.50963,-2.40527 z m -63.8798,-53.312061 c -0.0241,-0.08945 -0.0512,-0.191969 -0.0895,-0.281425 -7.548371,0.32011 -15.058356,1.356157 -22.645121,1.586471 11.360954,-7.791451 23.412751,-14.290769 35.630901,-20.572537 -0.20454,-0.140715 -0.34526,-0.178913 -0.48616,-0.20454 -5.56531,-0.857186 -11.00271,-2.354056 -16.555288,-3.288029 -0.281418,-0.05126 -0.741994,0 -0.780388,-0.370882 -0.02424,-0.281423 0.396499,-0.37088 0.652495,-0.498972 2.008606,-0.985131 3.991691,-2.021424 6.025881,-2.955397 6.2306,-2.853026 12.58917,-5.411816 18.90937,-8.047344 0.62688,-0.255797 1.26656,-0.511739 1.93187,-1.074686 -2.55879,-0.626872 -5.0152,-1.036289 -7.58676,-1.791159 0.55011,-0.255794 0.92116,-0.409563 1.27936,-0.601288 4.04285,-2.187766 8.16249,-4.183609 12.33328,-6.102663 2.3413,-1.087499 4.70816,-2.136606 7.04945,-3.224055 0.23017,-0.102519 0.58852,-0.153771 0.60129,-0.435193 0.0142,-0.35831 -0.39652,-0.35831 -0.6141,-0.524553 -0.0512,-0.03869 -0.1025,-0.05126 -0.1537,-0.07689 -10.22231,-5.168738 -20.98196,-7.855426 -32.49645,-7.292527 -3.42874,0.16634 -6.831911,0.524553 -10.183903,1.202631 -6.499277,1.317765 -12.665908,3.505528 -18.474332,6.780742 -6.819135,3.863738 -12.921797,8.5719 -18.026563,14.508269 -5.923555,6.857481 -10.414214,14.559429 -13.216085,23.220882 -2.034188,6.256188 -3.108874,12.665904 -3.313608,19.216379 -0.153769,4.976819 0.383939,9.90243 1.330579,14.789697 1.381738,7.16459 3.966107,13.88135 7.484401,20.25268 2.085396,3.76141 4.618605,7.24136 7.420426,10.51658 3.748607,4.40111 7.983373,8.25203 12.717111,11.56564 0.498974,0.34526 0.742054,0.2558 0.985132,-0.28143 0.639687,-1.4329 1.266606,-2.87861 1.983079,-4.27311 3.467134,-6.76797 7.062213,-13.45916 10.913138,-20.00964 0.178914,-0.30706 0.601343,-0.63969 0.422139,-0.98513 -0.204541,-0.39651 -0.690844,-0.10249 -1.049105,-0.11511 -0.319625,0 -0.639686,0.0242 -0.959504,0.0242 -3.748607,0.0242 -7.484449,0.29448 -11.207427,0.69089 -1.151471,0.12814 -2.315709,0.20454 -3.723027,0.32011 6.94708,-6.9215 14.508219,-12.75551 21.723967,-19.03728 -6.614407,0.38394 -13.164883,0.52455 -19.702544,0.44777 -0.02417,-0.0769 -0.05126,-0.14072 -0.06383,-0.2176 C 80.625878,95.947973 91.28317,88.310046 101.94047,80.67207 Z m 3.37758,44.420341 c 1.26661,0.29448 2.29013,0.51174 3.31361,0.79321 2.64834,0.71647 5.29668,1.44571 7.99619,1.98304 0.20454,0.0388 0.43519,0.0512 0.44778,0.30704 0.0142,0.23016 -0.2302,0.23016 -0.38395,0.26885 -0.98514,0.33268 -1.98304,0.62693 -2.96817,0.97237 -3.19847,1.10026 -6.39695,2.18771 -9.5826,3.32637 -3.21129,1.15148 -6.422538,2.34129 -9.608193,3.53111 -0.294003,0.11511 -0.793211,0.20454 -0.793211,0.53737 0,0.3201 0.473387,0.4734 0.7804,0.62687 2.05981,0.99794 4.132442,1.94468 6.179444,2.9554 0.40957,0.20454 1.16424,0.2176 1.15143,0.71647 -0.0144,0.39651 -0.75482,0.20454 -1.15143,0.28143 -3.646235,0.78038 -7.292528,1.57364 -10.849212,2.69949 -1.675983,0.53732 -3.403163,0.95956 -5.027979,1.59925 -1.688791,0.66525 -3.40316,1.24097 -5.066372,1.99583 -1.177052,0.53732 -2.418028,0.97232 -3.582267,1.54803 -0.178912,0.0895 -0.409564,0.1533 -0.422137,0.3965 -0.01444,0.29399 0.268852,0.34526 0.460337,0.44777 0.921159,0.49899 1.867898,0.94679 2.776241,1.45854 3.556687,2.00865 7.330873,3.44155 11.207422,4.65695 4.925665,1.53527 9.979227,2.30289 15.109567,2.46922 2.96817,0.0895 5.94912,0.16635 8.94293,-0.15323 1.85507,-0.20454 3.69739,-0.49896 5.50137,-0.8316 3.35199,-0.6141 6.63997,-1.56085 9.88965,-2.66111 5.45016,-1.85513 10.52936,-4.43949 15.21188,-7.75311 4.08126,-2.87861 7.85545,-6.11547 11.18185,-9.87685 2.14938,-2.43085 4.1708,-4.95123 5.94914,-7.66355 1.79115,-2.75066 3.3904,-5.6037 4.77213,-8.58467 0.95956,-2.05981 1.85509,-4.15802 2.62273,-6.29458 0.86999,-2.44361 1.48408,-4.98964 2.11103,-7.50997 0.9595,-3.8638 1.33051,-7.804275 1.63757,-11.757616 0.17891,-2.277268 0.077,-4.541818 0.0142,-6.806322 -0.10197,-3.543874 -0.62667,-7.036585 -1.33033,-10.47814 -0.9084,-4.426688 -2.20054,-8.76382 -4.00451,-12.909032 -2.08538,-4.784899 -4.63137,-9.313903 -7.72747,-13.523089 -2.17495,-2.955395 -4.58022,-5.744451 -7.22856,-8.290427 -1.58642,-1.522498 -3.23682,-2.980975 -4.91284,-4.401106 -1.36894,-1.151425 -2.81464,-2.226108 -4.32433,-3.21124 -0.63967,-0.422137 -1.07469,-0.370882 -1.45848,0.370881 -0.62689,1.25379 -1.31775,2.482002 -2.00863,3.6974 -1.61201,2.814634 -3.04496,5.731635 -4.52902,8.610292 -0.0895,0.178913 -0.23017,0.370881 -0.12817,0.562897 0.1407,0.230169 0.37088,0.05126 0.55012,0.03869 0.4352,-0.02417 0.85719,-0.102519 1.2922,-0.16634 2.16213,-0.35831 4.33707,-0.703661 6.49927,-1.074686 2.11097,-0.370881 4.20919,-0.780446 6.30739,-1.164238 0.1407,-0.02417 0.30706,-0.06383 0.38395,0.08946 0.0895,0.16634 -0.0512,0.268853 -0.15324,0.37088 -0.63972,0.626871 -1.25384,1.279372 -1.91911,1.867897 -2.48199,2.22611 -5.0152,4.388293 -7.53555,6.563242 -3.50553,3.019369 -7.13899,5.897976 -10.72128,8.827791 -0.75485,0.614108 -1.59923,1.164239 -2.18776,2.03419 7.57397,1.177053 15.14796,1.650445 22.72192,2.354104 -9.186,6.691187 -19.08845,12.256533 -28.41521,18.717407 0.35832,0.128135 0.67809,0.115081 0.98513,0.128135 7.48446,0.115082 14.98162,-0.204539 22.46608,0.166342 0.3583,0.01444 0.9595,-0.166342 1.02347,0.153276 0.10249,0.447767 -0.51174,0.614107 -0.84437,0.831606 -2.04705,1.356159 -4.10682,2.686738 -6.17945,4.0045 -1.80392,1.151425 -3.62067,2.290083 -5.43738,3.415928 -2.32849,1.44571 -4.68253,2.853077 -7.02384,4.285968 -1.53526,0.93393 -3.04495,1.90629 -4.58022,2.82745 -2.05981,1.22821 -4.13239,2.43084 -6.20502,3.63342 -0.20454,0.11509 -0.46034,0.23017 -0.38393,0.51179 0.0895,0.29448 0.37088,0.16634 0.60135,0.15377 0.98507,-0.0387 1.95743,-0.11508 2.94256,-0.0768 3.55668,0.14072 7.11338,0.32011 10.67006,0.48616 1.39456,0.0638 2.7763,0.1025 4.1708,0.20454 1.25384,0.0895 2.49482,0.2558 3.76143,0.38394 -0.0637,0.11508 -0.0769,0.17891 -0.11523,0.20454 -3.26246,1.6504 -6.51209,3.3136 -9.78729,4.91285 -3.19849,1.56084 -6.49934,2.94257 -9.69781,4.49065 -3.39033,1.63759 -6.81909,3.19847 -10.19666,4.84887 -1.01077,0.49898 -1.99585,1.06187 -3.16014,1.86791 z M 71.12007,25.74925 c -0.230169,-0.255797 -0.370881,-0.07689 -0.524553,-0.02417 -2.482002,0.959552 -4.887265,2.09821 -7.305294,3.211241 -1.27937,0.588527 -2.571556,1.177052 -3.761373,1.88071 -1.381738,0.806025 -2.737895,1.701605 -4.094053,2.55879 -2.635529,1.675976 -5.181504,3.454319 -7.676321,5.335032 -3.006556,2.277314 -5.834003,4.733737 -8.559085,7.330872 -2.737895,2.597184 -5.360659,5.309451 -7.727528,8.252082 -1.829503,2.277267 -3.659005,4.567398 -5.322217,6.959846 -1.484103,2.123791 -2.917002,4.311554 -4.158026,6.601635 -1.08745,1.995844 -2.200529,3.991687 -3.147267,6.051504 -1.458526,3.172894 -2.789105,6.39695 -3.978922,9.684929 -1.330528,3.684633 -2.405214,7.433242 -3.275212,11.233056 -0.498975,2.200529 -0.908393,4.413872 -1.279372,6.639983 -0.3583085,2.1366 -0.6141052,4.28596 -0.7804463,6.4481 -0.1789126,2.21335 -0.5245513,4.4395 -0.3965093,6.65285 0.1025214,1.75276 0,3.49271 0.063828,5.23266 0.076887,2.20057 0.2557967,4.40111 0.4608204,6.58888 0.3708802,4.08123 1.0362902,8.13688 1.9446362,12.14134 0.780445,3.42878 1.727185,6.83195 2.865841,10.17113 0.87,2.57157 1.791158,5.13035 2.891422,7.59959 1.253792,2.81463 2.507582,5.64207 4.042847,8.32878 1.087499,1.90628 2.162182,3.81256 3.339234,5.65489 1.919058,2.99378 3.902086,5.94912 6.179401,8.69985 2.622764,3.17284 5.207133,6.37131 8.303241,9.1092 0.985132,0.87001 1.829503,1.91911 2.763474,2.86585 2.123791,2.17495 4.592981,3.9533 6.998243,5.79561 2.059817,1.58642 4.234767,3.01936 6.435295,4.42669 3.300842,2.11097 6.729582,3.97888 10.235109,5.70606 3.377581,1.66321 6.895874,3.01936 10.439797,4.31154 3.54392,1.2922 7.177347,2.2517 10.849214,3.12169 0.48616,0.11511 0.690844,0.0895 0.447765,-0.4734 -0.307051,-0.71647 -0.550131,-1.44571 -0.869998,-2.16218 -0.435194,-0.97231 -0.818792,-2.03419 -2.213344,-1.90628 -1.279371,0.11511 -2.456422,-0.19197 -3.633473,-0.69085 -1.420084,-0.6013 -1.93187,-1.40731 -1.93187,-2.92982 0.01444,-1.45848 0.345253,-2.94257 -0.307053,-4.3499 -0.358308,-0.79321 -0.703658,-1.58642 -1.010711,-2.39243 -1.13866,-3.07054 -1.893477,-6.2562 -2.840215,-9.37794 -0.16634,-0.55013 -0.447766,-0.7804 -1.023526,-0.85719 -2.469189,-0.30704 -4.951237,-0.31963 -7.420426,-0.62686 -3.147317,-0.39652 -6.128291,-1.0747 -8.751005,-2.96821 -1.893478,-1.35612 -3.249635,-3.10888 -4.260347,-5.16869 -1.215397,-2.46919 -1.215397,-5.11755 -0.767632,-7.7403 0.153277,-0.90833 -0.06383,-1.25379 -0.818791,-1.57366 -3.019368,-1.24097 -5.667711,-3.14726 -7.740293,-5.59088 -3.377582,-3.97893 -4.797712,-8.67426 -3.850973,-13.93255 0.562946,-3.09611 0.37088,-6.17941 -0.345254,-9.21158 -0.780398,-3.32638 -1.650398,-6.62721 -2.430795,-9.95363 -0.498973,-2.11099 -0.895578,-4.24754 -1.368973,-6.35851 -0.614104,-2.73791 -1.125843,-5.48861 -1.471289,-8.27766 -0.294482,-2.35405 -0.460822,-4.72093 -0.754819,-7.07498 -0.37088,-3.01937 -0.690892,-6.0515 -0.767633,-9.07087 -0.115081,-4.234768 -0.05126,-8.456769 0.243226,-12.691536 0.204539,-2.801819 0.332681,-5.603687 0.729238,-8.379977 0.716472,-5.053557 1.995843,-9.953636 3.684634,-14.764115 1.317764,-3.748607 2.980975,-7.343688 4.90003,-10.836401 1.906291,-3.492714 4.017315,-6.844715 6.460925,-9.979216 3.044947,-3.902134 6.358555,-7.586768 10.183901,-10.759663 2.737896,-2.277316 5.450212,-4.567399 8.584713,-6.307347 1.202632,-0.626921 2.34124,-1.420132 3.518292,-2.162186 z M 55.639482,167.91471 c -0.217595,-0.20455 -0.447765,-0.23018 -0.678079,-0.28143 -5.642083,-1.177 -10.657295,-7.0622 -10.388586,-12.88341 0.115082,-2.44365 0.473391,-4.84888 0.678078,-7.27971 0.460337,-5.34785 -0.422136,-10.38863 -3.198474,-15.0456 -0.10252,-0.1789 -0.19197,-0.43518 -0.409567,-0.33268 -0.217594,0.1025 -0.06383,0.33268 -0.01444,0.52456 0.486158,1.75277 0.972318,3.50553 1.42013,5.2583 0.729239,2.86579 1.394504,5.75721 1.292185,8.751 -0.07689,2.54597 -0.703658,4.98958 -1.317765,7.446 -0.396507,1.58642 -0.486207,3.1729 0.10252,4.72093 1.701604,4.42669 4.669765,7.62515 9.211584,9.21158 1.087498,0.39651 2.187765,0.35831 3.300841,-0.0895 z m 56.254638,43.70387 c 0.16635,-1.84232 -0.61411,-3.53112 -2.05982,-4.93844 -0.34524,-0.33269 -0.67808,-0.6525 -1.21539,-0.34525 -0.76764,0.43519 -1.35616,1.0107 -1.76559,1.84233 -0.90834,1.86789 -0.92114,3.76136 -0.55012,5.74444 0.16633,0.84436 0.57576,1.38173 1.35615,1.63758 1.15147,0.38395 2.20054,0.23017 3.13451,-0.63969 0.92116,-0.85717 1.13864,-1.91906 1.10026,-3.30078 z M 84.591999,196.96959 c 0.409566,0.29399 0.473395,0.74205 0.614106,1.13865 0.268853,0.72925 0.511787,1.48411 0.767633,2.21335 0.08946,0.26886 0.230169,0.47339 0.562945,0.43519 0.307053,-0.0388 0.332681,-0.30705 0.332681,-0.52455 -0.03868,-2.7251 -0.268852,-5.399 -1.727184,-7.80427 -0.281425,-0.4734 -0.678078,-0.51173 -1.11303,-0.40956 -0.460338,0.1151 -0.639735,0.47339 -0.62692,0.92115 0,0.53736 0.153277,1.03629 0.370882,1.50969 0.409565,0.87 0.230168,1.612 -0.332681,2.34129 -1.98303,2.63552 -1.893476,5.69324 -1.675978,8.75101 0.05126,0.81879 0.946739,1.43289 1.739951,1.4073 0.703659,-0.0242 1.215397,-0.56293 1.304951,-1.48409 0.178913,-1.80394 0.115081,-3.59509 -0.19197,-5.37342 -0.178913,-1.03629 -0.332679,-2.05982 -0.02417,-3.12169 z m 13.036984,10.73404 c 0,0 -0.01437,0 -0.01437,0 0,-0.43521 0.01437,-0.86997 0,-1.30496 -0.06386,-1.4329 -1.100275,-1.98307 -2.315719,-1.25379 -0.537315,0.31962 -0.921154,0.75482 -1.228205,1.30495 -1.061867,1.84232 -0.806033,3.87655 -0.869948,5.85957 -0.02424,0.7293 0.281417,1.3434 0.665256,1.94469 0.639686,0.99795 1.919057,1.06188 2.456421,0.0142 0.473401,-0.90834 1.023525,-1.82949 1.087452,-2.917 0.05124,-1.21539 0.140715,-2.43084 0.217603,-3.64622 z m 1.522445,5.00238 c -0.178908,0.92116 0.729234,1.99585 1.995842,2.84027 1.10026,0.72923 2.18777,0.34525 2.32848,-0.81879 0.26885,-2.29014 0.6141,-4.59303 -0.0242,-6.89593 -0.20453,-0.74205 -0.72923,-1.177 -1.40731,-1.42013 -0.57571,-0.21759 -0.97232,0.17891 -1.34335,0.57577 -1.330576,1.42007 -1.356147,3.19847 -1.548079,5.71881 z m -11.194617,-6.75515 c -0.30705,2.54603 0.767641,4.82328 1.34335,7.20296 0.08948,0.35832 0.370877,0.60131 0.754817,0.61411 0.422132,0.0142 0.460339,-0.35829 0.575758,-0.63969 1.023475,-2.39244 1.036297,-4.83609 0.511743,-7.3309 -0.281429,-1.33053 -0.422144,-2.69952 -1.113085,-3.90209 -0.166336,-0.29401 -0.358305,-0.66532 -0.767627,-0.60135 -0.345258,0.0512 -0.447766,0.40957 -0.601292,0.69088 -0.742057,1.22823 -0.562948,2.63555 -0.703664,3.96608 z m 25.293469,6.51208 c 0.0242,0.56293 0.077,1.11307 0.26886,1.63763 0.30704,0.80602 1.66321,1.61206 2.46922,1.44571 0.93392,-0.17891 1.33054,-0.79321 1.35612,-2.02142 0.0242,-1.03629 -0.0895,-2.07263 -0.10249,-3.08335 -0.0142,-1.2282 -0.39651,-2.32846 -0.70366,-3.46714 -0.1407,-0.49896 -0.52455,-0.84436 -1.06187,-0.93392 -0.55013,-0.0895 -0.74205,0.35832 -0.95957,0.72925 -1.04909,1.76552 -0.806,3.81256 -1.26658,5.69324 z m 9.83851,-7.68908 c -0.0512,-0.4352 -0.11498,-1.01073 -0.17893,-1.58648 -0.0387,-0.33269 -0.15321,-0.67804 -0.46034,-0.7804 -0.37087,-0.12816 -0.53735,0.2558 -0.72928,0.49897 -1.88065,2.30291 -2.39246,4.98959 -2.20053,7.86819 0.0512,0.85719 -0.0512,1.74001 0.56296,2.48206 0.2558,0.29448 0.31963,0.8188 0.83159,0.75481 0.43521,-0.0637 0.51175,-0.49896 0.65246,-0.84442 1.0875,-2.66111 1.27942,-5.46296 1.52249,-8.39273 z m 26.16341,-27.5452 c 0,-0.20454 0,-0.46034 0,-0.72924 0,-0.34525 -0.0637,-0.66532 -0.43519,-0.76764 -0.35832,-0.1025 -0.61411,0.14069 -0.7804,0.42214 -0.23017,0.3965 -0.46033,0.80597 -0.62692,1.24097 -0.93393,2.46924 -1.50969,5.05362 -2.11098,7.62517 -0.17891,0.75481 -0.28143,1.54807 -0.34525,2.32849 -0.0637,0.71645 0.28143,0.90837 0.89558,0.56293 0.56293,-0.30705 0.86998,-0.83161 1.16424,-1.36897 1.52244,-2.90419 1.91906,-6.06426 2.23892,-9.31391 z m -24.76891,29.40027 c -0.0241,0.51178 0.0769,0.98513 0.26885,1.44571 0.23016,0.55013 0.66527,0.71647 1.07469,0.25579 0.98513,-1.11302 1.97026,-2.35404 2.07261,-3.83815 0.1025,-1.53525 -0.2432,-3.10887 -0.40955,-4.65695 -0.0388,-0.29448 -0.16633,-0.57572 -0.52456,-0.60129 -0.29449,-0.0143 -0.4734,0.2176 -0.57576,0.46035 -0.94673,2.2261 -1.612,4.52899 -1.90623,6.93426 z M 57.149168,177.90672 c 0,1.20263 0.281423,2.40523 0.869998,3.47991 0.742053,1.36897 1.73995,2.5204 3.096107,3.33923 0.255798,0.15322 0.562947,0.2558 0.793213,-0.0142 0.255796,-0.28143 -0.06383,-0.4734 -0.19197,-0.66531 -1.189818,-1.67599 -1.803922,-3.54389 -1.944684,-5.59094 -0.03869,-0.57571 -0.08946,-1.15141 -0.153278,-1.72711 -0.06383,-0.53738 -0.319624,-0.94675 -0.86995,-1.06193 -0.562946,-0.11511 -0.946737,0.19197 -1.228211,0.62691 -0.32011,0.4734 -0.422137,1.01072 -0.370882,1.61202 z m 95.634142,-1.80391 c 0,-0.46083 0.0142,-0.93398 0,-1.39456 -0.0142,-0.48616 -0.20454,-0.6909 -0.72925,-0.46034 -0.80602,0.34526 -1.10028,0.99791 -1.18981,1.77835 -0.2176,1.88073 -0.49898,3.73581 -0.83161,5.60373 -0.16634,0.90835 -0.26885,1.84234 -0.37088,2.76348 -0.0388,0.38394 -0.0142,0.84438 0.38394,0.9595 0.42214,0.12817 0.65251,-0.25578 0.80602,-0.6141 0.16634,-0.39651 0.37089,-0.7804 0.49898,-1.20262 0.7548,-2.43081 1.30494,-4.88724 1.43289,-7.43321 z m -72.131789,18.84536 c 0,-0.6397 0.02417,-1.27942 0,-1.91911 -0.02417,-0.66526 -0.102519,-1.34335 -0.460822,-1.91906 -0.243223,-0.38395 -0.588526,-0.65249 -1.087498,-0.55014 -0.409564,0.077 -0.550132,0.40957 -0.588528,0.76765 -0.217594,2.39243 -0.102519,4.75931 0.89558,6.99823 0.128137,0.28142 0.294481,0.63969 0.665265,0.58853 0.383938,-0.0512 0.422138,-0.43521 0.460821,-0.74205 0.128136,-1.0747 0.153278,-2.14936 0.115082,-3.22405 z m -16.158667,-16.3122 c 0,-0.25579 -0.01444,-0.52456 0,-0.78045 0.02417,-0.42212 -0.07689,-0.79321 -0.511737,-0.89552 -0.473395,-0.11498 -0.742054,0.2176 -0.921159,0.61409 -0.230169,0.48617 -0.293998,1.01071 -0.255796,1.53526 0.204539,2.2517 1.266555,4.06845 2.917001,5.56531 0.307052,0.28143 0.703658,0.85718 1.164238,0.42214 0.498925,-0.48616 -0.166341,-0.80598 -0.422137,-1.12585 -1.228212,-1.58642 -2.123791,-3.26245 -1.970263,-5.33503 z m 66.937516,12.69154 c -0.66526,0.0512 -1.47129,0.0142 -1.63764,0.8316 -0.30705,1.58643 -0.48615,3.19843 -0.70366,4.79765 -0.0388,0.26886 0.0388,0.55014 0.34527,0.61412 0.26885,0.0512 0.43519,-0.17891 0.49896,-0.38393 0.51173,-1.66317 1.4713,-3.09611 2.27733,-4.61856 0.44776,-0.81885 0.1407,-1.26662 -0.78047,-1.24104 z m -61.551278,-8.11133 c -0.0387,-0.12817 -0.0387,-0.35831 -0.153769,-0.51174 -0.703707,-1.02353 -0.729286,-2.17498 -0.729286,-3.33924 0,-0.55012 -0.06383,-1.10026 -0.128136,-1.6504 -0.05126,-0.46032 -0.243225,-0.88275 -0.729238,-0.95953 -0.447766,-0.0769 -0.6525,0.34523 -0.806027,0.67808 -0.307052,0.63967 -0.396508,1.33056 -0.281424,2.03423 0.255798,1.59923 1.036339,2.94257 2.047051,4.17079 0.140715,0.17891 0.281425,0.46082 0.537319,0.3583 0.268852,-0.12817 0.20454,-0.46032 0.243224,-0.7804 z m -8.162527,-12.65314 c 0.01444,-0.70367 -0.588478,-1.24102 -1.381738,-1.2666 -0.754818,-0.0243 -1.701556,0.71648 -1.71437,1.34334 -0.01444,0.67808 0.639686,1.38173 1.292185,1.38173 0.857185,0 1.791158,-0.74198 1.803923,-1.45847 z m 2.968209,2.80186 c 0.933925,-0.0142 1.778344,-0.60133 1.76553,-1.20263 -0.01444,-0.69088 -0.806026,-1.40729 -1.52245,-1.38173 -0.575711,0.0242 -1.317765,0.92116 -1.304997,1.62482 0.01444,0.67807 0.383936,0.98513 1.061917,0.95954 z m 4.247533,0.92117 c 0.268852,-0.15324 0.908393,0.1025 0.869998,-0.38394 -0.03869,-0.58852 0.243224,-0.98512 0.396508,-1.47128 0.204542,-0.63974 0.01444,-0.81885 -0.678078,-0.70366 -0.537319,0.0895 -0.908344,0.34523 -1.317765,0.70366 -0.422135,0.35829 -0.588524,0.63967 -0.383936,1.16423 0.19197,0.51174 0.575712,0.67807 1.113079,0.69084 z m 4.63142,-1.03633 c -0.08946,-0.34527 0.191969,-0.86996 -0.39651,-1.07469 -0.524553,-0.17891 -0.79326,0.23016 -1.087499,0.53736 -0.191967,0.20454 -0.37088,0.44776 -0.473392,0.71647 -0.230169,0.58847 -0.01444,1.01072 0.588526,1.22822 0.997896,0.35831 1.394501,-0.0243 1.368921,-1.40736 z"
           id="path4"
           style="fill:#3f3632;stroke-width:1.27938" />
        <path
           class="st1"
           d="m 101.94048,80.673309 c -10.657298,7.637975 -21.314539,15.275902 -31.95907,22.913831 0.02417,0.0769 0.05126,0.14071 0.06383,0.21759 6.550478,0.0769 13.088139,-0.0638 19.702588,-0.44776 -7.215741,6.28181 -14.776928,12.11582 -21.724009,19.03727 1.407317,-0.1151 2.571555,-0.19197 3.723026,-0.32011 3.723027,-0.40956 7.458821,-0.66526 11.207427,-0.69084 0.319627,0 0.639687,-0.0242 0.959552,-0.0242 0.35831,0 0.844373,-0.28143 1.049057,0.1151 0.178912,0.34525 -0.230168,0.67809 -0.422137,0.98513 -3.850926,6.55043 -7.45882,13.24162 -10.913141,20.00959 -0.716472,1.39456 -1.34339,2.84023 -1.983076,4.27315 -0.243226,0.53734 -0.48616,0.62688 -0.985132,0.28143 -4.733691,-3.3136 -8.968505,-7.17733 -12.717064,-11.56567 -2.801869,-3.27522 -5.335078,-6.75518 -7.420475,-10.51655 -3.518294,-6.3585 -6.102661,-13.08808 -7.484399,-20.25267 -0.946739,-4.887214 -1.484107,-9.812872 -1.330579,-14.789692 0.204539,-6.550475 1.27937,-12.960191 3.313608,-19.216379 2.814634,-8.661453 7.305294,-16.363352 13.216085,-23.220882 5.104716,-5.923556 11.220193,-10.644481 18.026562,-14.508222 5.795609,-3.288026 11.962251,-5.47579 18.474326,-6.780788 3.364776,-0.678079 6.755161,-1.036292 10.183901,-1.202583 11.50173,-0.550182 22.27415,2.136554 32.49643,7.292479 0.0512,0.02417 0.1025,0.05126 0.15372,0.07689 0.2176,0.16634 0.63967,0.16634 0.61411,0.524505 -0.0142,0.294479 -0.3709,0.332681 -0.60134,0.435193 -2.34125,1.087499 -4.70813,2.136603 -7.04942,3.224054 -4.17079,1.919104 -8.29041,3.914949 -12.33325,6.102711 -0.34527,0.191966 -0.71648,0.345252 -1.27944,0.601292 2.5716,0.767631 5.0408,1.164238 7.58677,1.791157 -0.66524,0.562897 -1.30495,0.818791 -1.93186,1.074685 -6.32017,2.635529 -12.67873,5.181503 -18.90933,8.047346 -2.03423,0.933924 -4.017261,1.957449 -6.025916,2.955346 -0.255797,0.128135 -0.678079,0.217598 -0.652459,0.498974 0.03874,0.370881 0.498933,0.319625 0.7804,0.370881 5.552525,0.921159 10.989925,2.430843 16.555265,3.288027 0.1407,0.02417 0.28143,0.05126 0.48615,0.204541 -12.20531,6.269003 -24.269925,12.781086 -35.630878,20.572537 7.586768,-0.230168 15.083935,-1.266603 22.645128,-1.586422 0.0639,0.05126 0.0895,0.140714 0.11511,0.230169 z"
           id="path6"
           style="fill:#e70235;stroke-width:1.27938" />
        <path
           class="st2"
           d="m 105.31806,125.09365 c 1.16423,-0.80603 2.14937,-1.36897 3.18571,-1.88072 3.37758,-1.6632 6.80632,-3.21123 10.19672,-4.84887 3.19843,-1.54807 6.49928,-2.94257 9.69775,-4.49065 3.28803,-1.59924 6.52483,-3.27521 9.78729,-4.91285 0.0388,-0.0242 0.0512,-0.0895 0.11499,-0.20454 -1.26661,-0.14071 -2.52041,-0.29399 -3.76143,-0.38394 -1.38174,-0.1025 -2.77623,-0.14071 -4.17079,-0.20454 -3.5567,-0.16634 -7.11339,-0.34525 -10.67007,-0.48615 -0.97235,-0.0387 -1.95749,0.0387 -2.94256,0.0769 -0.21761,0.0144 -0.49899,0.14072 -0.60135,-0.15377 -0.0895,-0.28142 0.17891,-0.38393 0.38393,-0.51174 2.07264,-1.21545 4.14521,-2.40526 6.20503,-3.63347 1.53527,-0.92116 3.05772,-1.88071 4.58021,-2.82745 2.34129,-1.432898 4.68253,-2.853031 7.02384,-4.285927 1.81671,-1.125892 3.63346,-2.264551 5.43738,-3.415973 2.07258,-1.317765 4.1324,-2.648344 6.17944,-4.004503 0.33269,-0.217594 0.94676,-0.396507 0.84438,-0.831603 -0.0768,-0.319627 -0.66527,-0.128137 -1.02347,-0.153771 -7.48446,-0.370881 -14.98162,-0.06383 -22.46607,-0.16634 -0.30705,0 -0.62686,0 -0.98513,-0.128137 9.32676,-6.460875 19.22918,-12.026219 28.41521,-18.717409 -7.57397,-0.703658 -15.14796,-1.164237 -22.72191,-2.354054 0.58851,-0.87 1.43287,-1.420132 2.18775,-2.034236 3.58227,-2.929816 7.20294,-5.808425 10.72122,-8.827793 2.5204,-2.174951 5.05361,-4.337085 7.53561,-6.563243 0.66526,-0.601291 1.27937,-1.240976 1.9191,-1.867895 0.1025,-0.102519 0.23016,-0.217597 0.15324,-0.370882 -0.077,-0.153769 -0.2558,-0.115082 -0.38394,-0.08945 -2.11102,0.383937 -4.20918,0.793212 -6.30738,1.164238 -2.16219,0.383937 -4.33715,0.729238 -6.49928,1.074684 -0.42213,0.06383 -0.85717,0.140715 -1.29218,0.166341 -0.17892,0.01444 -0.42214,0.191969 -0.55013,-0.03869 -0.1151,-0.191969 0.0242,-0.383937 0.12817,-0.562946 1.48405,-2.878609 2.917,-5.795611 4.52899,-8.610293 0.6909,-1.215397 1.38176,-2.44361 2.00867,-3.6974 0.37088,-0.742053 0.80602,-0.793212 1.45847,-0.370881 1.50969,0.972318 2.9554,2.047003 4.32433,3.211241 1.67601,1.42013 3.33923,2.865842 4.91283,4.401105 2.64834,2.558791 5.05362,5.335033 7.22856,8.290427 3.09611,4.209186 5.64209,8.73819 7.72749,13.523137 1.80396,4.145213 3.10891,8.482299 4.0045,12.908984 0.70366,3.454369 1.22821,6.934268 1.33058,10.478189 0.0637,2.277317 0.15371,4.541819 -0.0142,6.806321 -0.30705,3.953342 -0.6781,7.881059 -1.63763,11.757559 -0.62693,2.53321 -1.24104,5.06637 -2.11097,7.51003 -0.76765,2.13656 -1.65045,4.22195 -2.62279,6.29459 -1.3945,2.98096 -2.98097,5.834 -4.77207,8.58466 -1.7784,2.71231 -3.79981,5.23271 -5.94919,7.66354 -3.32636,3.76138 -7.10055,6.99826 -11.18184,9.87685 -4.69536,3.31363 -9.76173,5.89798 -15.21188,7.75311 -3.24964,1.10028 -6.53768,2.05977 -9.88967,2.66111 -1.80393,0.33269 -3.65907,0.62688 -5.50137,0.83162 -2.99374,0.3201 -5.97471,0.24321 -8.94293,0.1537 -5.13029,-0.16635 -10.196659,-0.93397 -15.109501,-2.46924 -3.87656,-1.20264 -7.650746,-2.64834 -11.207432,-4.65696 -0.908395,-0.51173 -1.855132,-0.95955 -2.776291,-1.45852 -0.191967,-0.1025 -0.473393,-0.15324 -0.460821,-0.44777 0.01444,-0.24322 0.243225,-0.30705 0.422138,-0.3965 1.164238,-0.58848 2.405262,-1.01071 3.582265,-1.54803 1.663213,-0.75488 3.377581,-1.33058 5.066372,-1.99584 1.637632,-0.65251 3.352003,-1.06192 5.028024,-1.59924 3.556683,-1.13866 7.202927,-1.91911 10.849176,-2.6995 0.39651,-0.0895 1.13865,0.1025 1.15146,-0.28143 0.0242,-0.49897 -0.72928,-0.51178 -1.15146,-0.71648 -2.047003,-1.01071 -4.132409,-1.95744 -6.179458,-2.95539 -0.307051,-0.1407 -0.7804,-0.30704 -0.7804,-0.62687 0,-0.33269 0.498983,-0.42214 0.793211,-0.53736 3.198477,-1.18983 6.396957,-2.37963 9.608197,-3.53112 3.18567,-1.13865 6.38413,-2.22611 9.58261,-3.32637 0.98513,-0.33268 1.98304,-0.63973 2.96816,-0.97237 0.15323,-0.0512 0.39651,-0.0387 0.38393,-0.26884 -0.0142,-0.2558 -0.24321,-0.26886 -0.44776,-0.30705 -2.6995,-0.53733 -5.34779,-1.26656 -7.99613,-1.98303 -1.0363,-0.26886 -2.07264,-0.48616 -3.3392,-0.78045 z"
           id="path8"
           style="fill:#53508b;stroke-width:1.27938" />
        <path
           class="st3"
           d="m 165.82028,133.98537 c -0.47339,0.79321 -0.97231,1.56084 -1.42014,2.36686 -1.3945,2.46924 -2.82743,4.91285 -4.15797,7.42043 -1.74,3.26246 -1.97026,6.8831 -2.29012,10.4782 -0.20454,2.30287 -0.60129,4.55462 -1.80392,6.57605 -1.50969,2.53321 -5.75728,4.95123 -9.37792,3.47994 -1.8551,-0.75487 -3.77421,-1.3434 -5.65492,-2.02142 -3.31361,-1.18985 -6.74235,-1.43296 -10.22228,-1.21544 -3.40317,0.21759 -6.75517,0.78044 -9.94083,2.03423 -2.86581,1.12585 -5.30945,2.85303 -7.24132,5.2583 -0.6013,0.742 -1.10027,1.57361 -0.67808,2.54597 0.43518,0.9979 1.39456,1.26656 2.37968,1.34335 2.20054,0.1789 4.41388,0.077 6.61442,0.0388 6.10266,-0.10249 12.16696,-0.84442 18.23122,-1.42014 1.93189,-0.17892 3.87657,-0.294 5.82125,-0.42213 1.27937,-0.077 2.54598,-0.20454 3.79977,-0.4734 0.4734,-0.1025 1.07466,-0.1025 1.22821,0.37088 0.1789,0.55014 -0.43521,0.76762 -0.84437,0.9084 -0.65249,0.23017 -1.3434,0.35832 -2.02147,0.48616 -1.88067,0.37087 -3.76139,0.70364 -5.64208,1.06187 -0.1407,0.0242 -0.28143,0.0637 -0.42215,0.11522 -0.29399,0.1025 -0.70365,0.14069 -0.74206,0.51173 -0.0388,0.39652 0.38396,0.46034 0.66533,0.58853 0.65244,0.30705 1.31775,0.60134 1.98301,0.89558 0.80604,0.35832 1.11311,1.02352 1.02354,1.84233 -0.30705,2.68672 -0.75486,5.34784 -1.6504,7.90661 -0.79326,2.22613 -2.45642,3.41594 -4.73375,3.82537 -2.60992,0.47337 -5.20712,0.33268 -7.76585,-0.37089 -0.71648,-0.19197 -1.39456,-0.17891 -2.03425,0.12816 -2.89142,1.40731 -5.59093,3.18565 -8.751,4.33712 0.58852,0.42215 1.12585,0.37088 1.61201,0.37088 1.16424,0.0142 2.32852,0 3.47994,-0.0512 0.8188,-0.0388 1.25378,0.29399 1.33058,1.11307 0.077,0.80598 0.20455,1.61201 0.30705,2.41803 0.0769,0.6141 0.0512,1.16423 -0.74206,1.33052 -0.33269,0.0637 -0.37088,0.40958 -0.43518,0.6909 -0.12817,0.56295 -0.26886,1.12585 -0.6397,1.59923 -0.19197,0.2558 -0.43518,0.38394 -0.75485,0.33269 -0.33268,-0.0388 -0.38394,-0.32011 -0.46082,-0.56295 -0.12816,-0.42213 -0.0242,-1.10026 -0.5629,-1.15141 -0.53737,-0.0512 -0.6525,0.62686 -0.9084,1.03628 -1.20263,1.93187 -2.86579,3.40318 -4.66977,4.73374 -0.30705,0.23017 -0.66526,0.28142 -0.97232,0.0512 -0.86999,-0.66533 -1.53527,-0.19197 -2.16217,0.37086 -0.53732,0.4734 -1.04905,1.01073 -1.54804,1.52246 -0.29399,0.30705 -0.5757,0.35832 -0.88275,0.0388 -0.48622,-0.49893 -1.13866,-0.79321 -1.59924,-1.34335 -0.42215,-0.49896 -0.99795,-0.51173 -1.59924,-0.39651 -1.10026,0.20455 -1.97027,0.80603 -2.82746,1.48412 -0.95954,0.76761 -1.0491,0.72923 -1.72718,-0.24324 -0.23017,-0.33268 -0.48616,-0.65249 -0.72924,-0.98513 -0.76762,-1.02353 -1.36897,-1.2282 -2.55879,-0.78044 -0.49897,0.19196 -0.84436,0.16632 -1.253785,-0.20455 -1.84232,-1.73994 -3.249633,-1.85508 -5.437396,-0.49896 -2.046999,1.2666 -2.226109,1.30499 -3.134502,-0.93392 -1.45848,-3.56951 -2.853032,-7.19016 -2.878603,-11.14347 0,-0.76762 -0.370891,-0.99795 -1.100272,-0.97237 -1.701605,0.077 -3.428788,0.30705 -5.028026,-0.56288 -1.25379,-0.67809 -2.494767,-1.38173 -3.45432,-2.46925 -0.396507,-0.46034 -0.869998,-0.80602 -1.49687,-0.69085 -1.330579,0.25579 -2.315709,-0.40955 -3.275262,-1.16422 -1.08745,-0.85719 -2.021422,-1.84232 -2.379636,-3.23688 -0.486158,-1.91905 -0.588526,-3.77418 1.125845,-5.19432 0.959552,-0.79321 1.983078,-1.43289 3.339188,-0.98513 0.39651,0.12817 0.857234,0.12817 1.164286,-0.28141 -0.01444,-0.17891 -0.153769,-0.19196 -0.243224,-0.23018 -0.511787,-0.2176 -1.202634,-0.2176 -1.228212,-1.02348 -0.01444,-0.84442 0.307052,-1.52249 1.061872,-1.9575 0.76763,-0.43518 1.624816,-0.38393 2.469234,-0.35829 3.633427,0.0895 7.254087,0.15322 10.887565,0.25578 2.021416,0.0512 3.914902,-0.3965 5.66766,-1.42008 0.345257,-0.20455 0.716473,-0.31963 0.857189,0.1407 0.575758,1.94464 1.164276,3.90208 0.882808,5.97472 -0.05124,0.39651 -0.575758,0.84437 -0.128129,1.17705 0.524542,0.3965 1.177001,0.16633 1.752759,-0.0637 0.550137,-0.21758 0.460826,-0.69089 0.370878,-1.11307 -0.294478,-1.33058 -0.03874,-2.58436 0.511743,-3.81257 0.74204,-1.6888 0.17891,-3.5183 -1.368932,-4.46509 -3.569494,-2.17495 -7.15181,-4.33708 -11.041128,-5.89798 -2.993741,-1.20258 -6.115478,-1.79111 -9.313953,-2.08539 -3.211239,-0.29448 -6.448108,-0.4352 -9.659348,-0.12817 -3.774189,0.35832 -6.627215,-1.29212 -9.237166,-3.65899 -1.496868,-1.35617 -2.686735,-2.9682 -3.787,-4.64419 -0.793211,-1.21546 -0.946738,-2.57155 -0.524553,-4.0045 0.793213,-2.7379 1.535265,-5.48856 1.151474,-8.39274 -0.140716,-1.02353 -0.460339,-1.97027 -0.84442,-2.917 -0.255797,-0.63974 -0.562899,-1.26661 -0.588526,-1.99585 0.46082,0 0.562947,0.35831 0.754867,0.58849 3.991686,4.7977 8.405558,9.14765 13.535902,12.74267 8.507927,5.94919 17.847457,9.8769 28.108144,11.6041 1.368932,0.23016 2.725079,0.5757 4.042839,1.04905 2.5588,0.9084 3.27522,3.09615 3.7358,5.45021 0.10248,0.51174 0.15328,1.0363 0.23017,1.54802 0.0241,0.19197 0.0512,0.44777 0.31963,0.43521 0.24323,0 0.30705,-0.23019 0.34526,-0.43521 0.17891,-0.94673 0.34524,-1.88066 0.67807,-2.78905 1.03628,-2.86578 2.98097,-4.37548 6.10266,-4.58022 7.81709,-0.48615 15.28867,-2.43078 22.45325,-5.59086 4.28591,-1.89352 8.31599,-4.23483 12.07743,-7.02387 13.90691,-10.27346 22.63234,-23.95012 26.39371,-40.76125 3.07053,-13.702234 2.03425,-27.186978 -2.92976,-40.339041 -3.83817,-10.183951 -9.8257,-18.922142 -17.77073,-26.342616 -4.06846,-3.812244 -8.49515,-7.1259 -13.39523,-9.787006 -7.24132,-3.940529 -14.95599,-6.448109 -23.11851,-7.586768 -5.75721,-0.806025 -11.50166,-0.882765 -17.27169,-0.16634 -10.081582,1.25379 -19.369907,4.644136 -27.903412,10.171087 -8.098554,5.245527 -14.956035,11.757559 -20.265487,19.830535 -5.501371,8.367165 -9.045291,17.489196 -10.593322,27.404438 -1.548077,9.812926 -1.100312,19.523431 1.535265,29.093281 2.187715,7.94498 5.770031,15.23746 10.414168,22.03101 0.383936,0.56295 0.690894,1.10026 0.665314,1.82955 -0.02417,0.70366 0.345253,1.34335 0.626871,1.98303 0.767631,1.80393 1.330578,3.65906 1.317763,5.64208 -0.01444,1.91911 -0.754817,3.67188 -1.407318,5.43742 -0.307051,0.81877 -0.639683,1.61203 -0.985131,2.41802 -0.86995,1.99583 -0.716424,3.90211 0.498975,5.71886 0.908392,1.35618 1.983076,2.57156 3.032132,3.82539 0.166341,0.19197 0.332681,0.38395 0.511788,0.6013 -0.294481,0.12816 -0.524553,0.0512 -0.729287,-0.0388 -2.891372,-1.17704 -4.925612,-3.12167 -5.616504,-6.26899 -0.293998,-1.38174 0.140714,-2.63554 0.652501,-3.88932 0.767631,-1.88072 1.778342,-3.65905 2.008656,-5.73169 0.370882,-3.27521 -0.115082,-6.37132 -1.88071,-9.19877 -2.302896,-3.65906 -4.669766,-7.29252 -6.729583,-11.0923 -2.418028,-4.45226 -3.966106,-9.21157 -5.091951,-14.12442 -0.230168,-1.02348 -0.460821,-2.05982 -0.985131,-3.23682 -0.217597,1.59923 0.102519,2.92977 0.358308,4.24753 1.432945,7.25413 3.914948,14.11165 8.03458,20.2783 2.648295,3.9661 3.607847,8.23926 3.057715,12.92179 -0.217597,1.85514 -0.806026,3.63348 -1.407318,5.38624 -1.343343,3.82534 -0.562946,7.24133 1.637632,10.49097 1.586424,2.34127 3.23682,4.61859 5.309451,6.55047 0.140715,0.12817 0.243224,0.29399 0.447765,0.53731 -1.599237,0.0388 -2.801868,-0.67807 -3.825395,-1.53526 -2.955395,-2.45642 -4.810478,-5.6165 -5.33503,-9.48025 -0.128136,-0.95954 0.01444,-1.90628 0.153278,-2.86584 0.281424,-1.98303 0.575712,-3.96611 0.780447,-5.96195 0.447765,-4.35009 -0.665266,-8.40575 -2.430844,-12.33347 -1.586423,-3.51828 -3.16008,-7.04939 -4.708111,-10.59332 -2.059816,-4.7081 -3.403208,-9.63377 -4.158026,-14.7129 -0.806026,-5.34785 -1.292186,-10.708505 -1.113079,-16.145902 0.217597,-6.576008 0.754866,-13.088089 2.430844,-19.48504 1.381737,-5.271057 3.288026,-10.337428 5.821188,-15.173535 3.160131,-6.064268 6.985477,-11.668005 11.73198,-16.58085 11.757559,-12.179747 25.843645,-19.920039 42.718732,-22.299724 15.301486,-2.162135 29.732966,0.652501 43.320036,7.842662 10.11998,5.36061 18.28246,12.998584 24.89685,22.299722 7.01106,9.864035 11.34818,20.828383 12.97301,32.803442 1.79115,13.216085 0.30706,26.073905 -4.70815,38.471155 -1.73996,4.29874 -3.78696,8.46957 -5.37344,12.83229 -1.7911,4.91285 -3.56949,9.82569 -4.1836,15.05836 -0.30706,2.59718 -0.33269,5.21988 -0.16634,7.82984 0.12818,1.91911 -0.14069,3.78701 -0.74201,5.57811 -0.94678,2.80187 -2.9682,4.50349 -5.85964,5.15599 -0.19196,0.0512 -0.3965,0.0769 -0.60126,0.0769 -0.19199,0 -0.44778,0.0895 -0.51176,-0.17891 -0.0388,-0.19198 0.15322,-0.29448 0.294,-0.39651 0.81878,-0.56294 1.58644,-1.16429 2.31567,-1.84232 0.76762,-0.71649 1.44571,-1.5097 2.0982,-2.32851 1.35614,-1.75278 1.95745,-3.73581 1.76553,-5.94914 -0.11523,-1.33058 -0.2558,-2.66112 -0.38394,-3.99169 -0.23018,-2.34131 -0.49893,-4.66977 0.077,-7.01106 -1.01072,1.4841 -1.48406,3.14731 -1.4713,4.90008 0.0242,1.99584 0.24322,4.00443 0.33268,6.0003 0.16634,3.76141 -1.90623,6.95989 -5.34779,8.25207 -0.28143,0.10249 -0.62693,0.38394 -0.85718,0.0242 -0.2176,-0.34526 0.0512,-0.66532 0.30704,-0.92115 0.12817,-0.12816 0.2558,-0.24323 0.3965,-0.33268 2.36683,-1.39456 3.28799,-3.63349 3.72301,-6.19229 0.47337,-2.76347 0.4608,-5.56529 0.47337,-8.34158 0.0242,-2.90418 1.01071,-5.45021 2.36688,-7.93221 0.98513,-1.80392 1.93186,-3.64624 2.68673,-5.56529 0.14069,-0.34525 0.37089,-0.67807 0.24323,-1.07469 0.0388,-0.0242 0.077,-0.0638 0.1025,-0.0895 -0.0242,-0.0144 -0.0388,-0.0242 -0.0637,-0.0388 -0.1025,0.0769 -0.1025,0.12815 -0.11499,0.17892 z m -57.54681,60.97556 c 0.3583,-0.12817 0.63968,-0.37089 0.90838,-0.62688 0.1025,-0.0512 0.20454,-0.1025 0.29448,-0.15369 0.16634,0.0142 0.31963,-0.0242 0.39652,-0.20457 0.0637,0 0.1025,-0.0242 0.1407,-0.0769 0.1025,0.0242 0.16632,-0.0142 0.19196,-0.1151 1.49687,-0.74206 1.76553,-1.31777 1.04905,-2.44366 -1.8167,-2.85304 -1.91906,-6.07709 -2.0854,-9.28832 -0.0143,-0.30707 0.11512,-0.62692 0.16634,-0.93396 0.0638,-0.46085 0.56295,-1.08747 0.11512,-1.33055 -0.51174,-0.28143 -0.94674,0.35832 -1.35612,0.71643 -0.0387,0.0388 -0.0768,0.0895 -0.11511,0.12817 -2.68673,4.01732 -3.21128,8.34162 -1.85512,12.93462 0,0.43518 0.20454,0.79321 0.49897,1.08749 0.0144,0.0637 0.0388,0.11511 0.0895,0.1407 0.4352,0.76763 0.94674,0.66526 1.50969,0.15322 z m -4.23477,-5.55253 c -0.17892,-2.99373 -0.58853,-5.83401 -1.57366,-8.55908 -0.24323,-0.67809 -0.58853,-1.33058 -1.177,-1.79117 -0.5118,-0.40956 -0.98513,-0.23016 -0.90839,0.38394 0.10248,0.8828 -0.17893,1.66321 -0.34526,2.46925 -0.486163,2.48199 -0.806024,4.98957 -1.509687,7.42042 -0.102488,0.34524 -0.102488,0.69088 0.06386,1.02352 0.818844,1.59925 1.637627,3.21124 2.712317,4.65695 0.55014,0.75487 1.07468,0.6909 1.50969,-0.1407 0.92115,-1.73995 1.08745,-3.65905 1.22821,-5.46296 z"
           id="path10"
           style="fill:#ffffff;stroke-width:1.27938" />
        <path
           class="st1"
           d="m 148.71487,28.845358 c 0.75483,0.02417 1.36894,0.473393 1.99584,0.806025 6.08991,3.300842 11.83436,7.113373 17.14381,11.578453 2.68668,2.264503 5.27105,4.631372 7.71466,7.164583 5.34785,5.539716 10.00485,11.604034 13.93256,18.218435 3.56946,6.038736 6.49927,12.371664 8.78936,19.011692 1.4969,4.337135 2.72511,8.751007 3.62066,13.254482 0.75485,3.748562 1.25384,7.548372 1.56089,11.373712 0.24321,3.12169 0.40955,6.25619 0.33266,9.39069 -0.10249,4.23477 -0.40955,8.45677 -0.97235,12.65314 -0.98513,7.21574 -2.81463,14.2268 -5.29665,21.05872 -2.22614,6.12827 -5.04077,11.98785 -8.5463,17.50199 -2.89144,4.55463 -6.0387,8.93016 -9.55703,13.02416 -3.09611,3.6079 -6.46088,6.9215 -10.08155,10.01762 -4.74654,4.05565 -9.86408,7.54836 -15.26308,10.64448 -4.74655,2.72512 -9.69774,5.01522 -14.86648,6.79355 -4.88726,1.68878 -9.86409,3.03213 -14.98163,3.90214 -0.24321,0.0388 -0.55011,0.25579 -0.72923,0 -0.15372,-0.23017 0.12817,-0.47339 0.23018,-0.70366 0.66526,-1.53526 1.54801,-2.78906 3.05772,-3.74862 2.40525,-1.52244 3.83815,-3.77417 3.62065,-6.78073 -0.17891,-2.53322 0.95955,-4.657 2.00866,-6.81913 0.66525,-1.35618 1.29217,-2.73791 1.84231,-4.13245 0.29448,-0.75481 0.74205,-0.84437 1.48405,-0.80598 2.66117,0.16633 5.32228,0.49892 7.9962,0.12816 3.46712,-0.48616 6.15387,-2.0598 8.03454,-5.1559 1.72717,-2.82746 2.25173,-5.93637 2.80185,-9.08364 0.38396,-2.22616 0.84443,-4.45227 0.93398,-6.71683 0.0242,-0.55013 0.35832,-0.62687 0.78038,-0.75481 1.85515,-0.56295 3.74864,-0.98513 5.43742,-2.03424 3.47995,-2.14939 4.92566,-5.41181 5.29668,-9.30113 0.20454,-2.13656 0.0387,-4.28594 0.1025,-6.42253 0.16633,-5.66767 1.15142,-11.16905 2.92976,-16.55529 1.56085,-4.72092 3.49273,-9.28831 5.46299,-13.84295 2.66115,-6.15382 4.45227,-12.56358 5.41182,-19.21638 0.70364,-4.925656 0.93397,-9.88966 0.6909,-14.853665 -0.19199,-3.825393 -0.6781,-7.612347 -1.42015,-11.386533 -1.42013,-7.330922 -3.90213,-14.26519 -7.36926,-20.854011 -3.07053,-5.821238 -6.83195,-11.169081 -11.27141,-16.03072 -3.90213,-4.234765 -8.23925,-7.919399 -12.85783,-11.32256 z"
           id="path12"
           style="fill:#e70235;stroke-width:1.27938" />
        <path
           class="st2"
           d="m 71.12007,25.74925 c -1.177051,0.742052 -2.302898,1.522498 -3.505528,2.187764 -3.134502,1.739949 -5.846769,4.030079 -8.584665,6.307349 -3.825393,3.172894 -7.139002,6.857527 -10.183902,10.759662 -2.443657,3.121688 -4.554633,6.486501 -6.460924,9.979216 -1.906289,3.492714 -3.582265,7.087793 -4.900031,10.836399 -1.688789,4.797714 -2.955395,9.710558 -3.684632,14.764118 -0.396508,2.789102 -0.524553,5.578156 -0.729287,8.379977 -0.307053,4.234813 -0.358309,8.46958 -0.243225,12.691535 0.07689,3.03213 0.39651,6.06432 0.767634,9.07087 0.29448,2.35406 0.460336,4.72092 0.754866,7.07498 0.345252,2.77629 0.857184,5.53976 1.471288,8.27766 0.473395,2.12378 0.869953,4.24754 1.368925,6.35857 0.780446,3.32636 1.650398,6.6272 2.430844,9.95358 0.716472,3.04494 0.908343,6.11548 0.345252,9.21157 -0.959552,5.2583 0.473392,9.95365 3.850925,13.93257 2.072631,2.44361 4.720975,4.3499 7.740295,5.59092 0.754866,0.30705 0.972367,0.66527 0.818839,1.57361 -0.447766,2.62277 -0.447766,5.2583 0.767632,7.74029 1.010712,2.04706 2.366822,3.79983 4.260346,5.16874 2.635528,1.89347 5.616503,2.57155 8.751006,2.96817 2.469188,0.31962 4.951237,0.31962 7.420425,0.62692 0.588526,0.0769 0.857186,0.30704 1.023527,0.85718 0.946737,3.12167 1.701555,6.30739 2.840214,9.37793 0.307053,0.80597 0.639684,1.61199 1.010711,2.39244 0.6525,1.42008 0.307054,2.90419 0.307054,4.34989 -0.01444,1.52247 0.511786,2.32848 1.93187,2.92983 1.177051,0.49892 2.354103,0.80597 3.633473,0.69084 1.407317,-0.12817 1.778343,0.93397 2.213344,1.90628 0.319623,0.70368 0.550131,1.44571 0.869998,2.16219 0.24323,0.5629 0.0387,0.58849 -0.447765,0.4734 -3.671868,-0.85724 -7.305294,-1.82955 -10.849214,-3.12174 -3.543923,-1.29219 -7.062217,-2.63553 -10.439798,-4.3115 -3.505527,-1.72724 -6.934316,-3.60791 -10.235108,-5.70611 -2.200529,-1.40733 -4.375527,-2.84022 -6.435295,-4.42668 -2.405264,-1.84233 -4.8745,-3.62066 -6.99829,-5.7956 -0.921158,-0.94676 -1.76553,-1.99585 -2.763475,-2.86586 -3.096108,-2.73791 -5.680477,-5.94913 -8.303193,-9.10922 -2.277315,-2.75067 -4.260344,-5.70604 -6.179448,-8.69985 -1.177053,-1.84231 -2.251738,-3.76137 -3.339189,-5.65488 -1.535264,-2.6867 -2.789054,-5.51414 -4.042845,-8.32877 -1.100313,-2.46925 -2.008657,-5.02802 -2.891423,-7.59959 -1.138657,-3.33918 -2.085395,-6.74234 -2.865841,-10.17113 -0.908345,-4.00445 -1.573659,-8.06012 -1.9446853,-12.14136 -0.1919669,-2.18776 -0.3839364,-4.37552 -0.4608191,-6.58886 -0.063828,-1.73996 0.038681,-3.49272 -0.063828,-5.23267 -0.1281358,-2.21335 0.2175966,-4.4395 0.3965093,-6.6528 0.1663411,-2.16218 0.4221365,-4.31155 0.7804461,-6.4481 0.370881,-2.226162 0.767633,-4.439505 1.27937,-6.640034 0.87,-3.81258 1.957499,-7.561189 3.275263,-11.233008 1.189817,-3.288026 2.520396,-6.512081 3.978874,-9.684976 0.946737,-2.072583 2.059816,-4.05566 3.147315,-6.051503 1.240975,-2.290083 2.673923,-4.46508 4.157978,-6.601636 1.676024,-2.392449 3.505528,-4.682532 5.322264,-6.959847 2.36687,-2.942581 4.989586,-5.654898 7.727482,-8.252082 2.725129,-2.584321 5.552528,-5.053557 8.559132,-7.330873 2.494767,-1.880711 5.040743,-3.659054 7.676321,-5.335032 1.356109,-0.857184 2.712268,-1.752764 4.094004,-2.55879 1.189818,-0.703656 2.494815,-1.292182 3.761421,-1.88066 2.418028,-1.11308 4.823293,-2.264551 7.305294,-3.211289 0.128136,-0.07689 0.268853,-0.255797 0.51174,0 z"
           id="path14"
           style="fill:#53508b;stroke-width:1.27938" />
        <path
           class="st3"
           d="m 98.511743,72.779537 c 2.942577,-1.573656 5.846817,-3.224054 8.840557,-4.708159 5.07919,-2.507581 10.19672,-4.912844 15.30147,-7.382081 0.2945,-0.140715 0.66527,-0.19197 0.93393,-0.639685 -3.23681,-0.422138 -6.42248,-0.806027 -9.55697,-1.458479 -3.12174,-0.652498 -6.24342,-1.253837 -9.33953,-2.111023 4.61855,-2.085395 9.12202,-4.362712 13.79179,-6.25619 4.64413,-1.893474 9.26273,-3.850972 13.88136,-5.872397 -2.72514,-0.921156 -5.52695,-1.343341 -8.50794,-2.008608 5.19428,-2.699502 10.33743,-4.989631 15.74925,-6.857529 -2.87864,5.949136 -5.97477,11.757561 -9.46748,17.655538 4.54182,-1.010712 8.76382,-2.264502 13.26725,-2.597135 -0.53737,0.524552 -1.06192,1.087451 -1.63765,1.586423 -3.35198,3.006556 -7.03662,5.616504 -10.52933,8.443952 -2.91699,2.354055 -5.834,4.695345 -8.84057,6.934267 -0.15324,0.115082 -0.34524,0.217597 -0.40957,0.562947 6.8703,1.47129 13.88136,1.906292 21.03313,2.942581 -9.94082,6.947082 -20.07357,13.139298 -30.15515,19.48504 8.46952,0.166339 16.90073,-0.320108 25.38301,-0.02417 -9.91523,7.394895 -20.81561,13.190511 -31.42169,19.549061 7.29247,0.48616 14.59777,-0.0242 21.91588,0.71642 -10.08158,5.42463 -20.50857,10.15837 -30.833227,15.22473 3.467127,0.83161 6.959887,1.48407 10.452607,2.50759 -0.42215,0.4352 -0.92116,0.57572 -1.38174,0.75482 -5.88521,2.39244 -11.770374,4.77213 -17.655537,7.16458 -0.345257,0.14072 -0.678079,0.33269 -1.010713,0.49898 -0.05124,0.0388 -0.153276,0.0769 -0.166336,0.12814 -0.01437,0.11511 0.08948,0.16634 0.19197,0.16634 0.115106,0.0638 0.243223,0.1151 0.358305,0.17891 0.03874,0.1025 0.102488,0.12814 0.204542,0.0895 0.166336,0.0769 0.345258,0.15378 0.511744,0.23017 0.02412,0.0895 0.08948,0.12814 0.191956,0.1025 0.05124,0.0242 0.115108,0.0512 0.166349,0.0768 0.02412,0.1025 0.08948,0.14071 0.19197,0.1025 0.383938,0.17891 0.754817,0.37088 1.138656,0.55014 0,0.0639 0.02412,0.0895 0.08948,0.0895 0.882759,0.46082 1.752758,0.92116 2.776245,1.44571 -1.036298,0.6141 -2.059771,0.80603 -3.032142,1.10026 -5.181503,1.54808 -10.196714,3.54392 -15.186299,5.59093 -0.358308,0.14071 -0.818838,0.55014 -1.113079,0.2558 -0.281424,-0.28142 0.102519,-0.74205 0.243225,-1.10027 2.162184,-5.70605 5.219899,-10.95152 8.3544,-16.15866 2.226158,-3.71022 4.477842,-7.40765 6.716773,-11.10506 0.06386,-0.1025 0.102487,-0.20454 0.243223,-0.48616 -4.874454,0.39651 -9.646588,0.81879 -14.482644,0.86995 6.72958,-6.81913 14.508215,-12.39724 21.647227,-18.80695 -6.627218,0.52455 -13.216089,1.22821 -19.932857,1.18981 0.153278,-0.42213 0.473392,-0.57571 0.729238,-0.78044 5.232711,-4.119591 10.849214,-7.701906 16.261038,-11.565645 4.98958,-3.556687 10.030366,-7.049401 15.032766,-10.580508 0.26885,-0.191968 0.52455,-0.409565 0.74205,-0.703659 -7.12618,-0.03868 -14.188393,0.396509 -21.276189,0.882765 1.727175,-1.484105 3.774186,-2.392449 5.616505,-3.633475 0.06386,-0.03868 0.140715,-0.07689 0.204543,-0.128136 0.21759,-0.115081 0.422133,-0.243224 0.639672,-0.358308 0.166349,0.02417 0.294491,-0.03868 0.370892,-0.191968 0.115106,-0.06383 0.230163,-0.140715 0.345245,-0.204541 0.140715,0.02417 0.255796,-0.02417 0.307051,-0.16634 0.128141,-0.07689 0.255797,-0.140715 0.370891,-0.217598 0.128129,0.03868 0.21759,-0.02417 0.281417,-0.140715 0.204543,-0.115082 0.396512,-0.230168 0.601292,-0.345252 0.06386,-0.0387 0.140715,-0.07689 0.204543,-0.115082 0.153275,-0.08946 0.319624,-0.178912 0.473399,-0.268852 0.102487,0.0387 0.153276,0 0.178909,-0.102519 z"
           id="path16"
           style="fill:#ffffff;stroke-width:1.27938" />
        <path
           class="st3"
           d="m 55.639482,167.91471 c -1.113029,0.44776 -2.213342,0.48615 -3.313607,0.1025 -4.541819,-1.59925 -7.50998,-4.78491 -9.211584,-9.2116 -0.588526,-1.53525 -0.498974,-3.13448 -0.102519,-4.7209 0.614105,-2.44362 1.241025,-4.90005 1.317813,-7.44602 0.102519,-2.99379 -0.562947,-5.88521 -1.292185,-8.75101 -0.447765,-1.75275 -0.933973,-3.50553 -1.420132,-5.25828 -0.05126,-0.19197 -0.204541,-0.42215 0.01444,-0.52455 0.217596,-0.1025 0.307053,0.15375 0.409564,0.33268 2.776241,4.64418 3.671819,9.68492 3.198426,15.04557 -0.20454,2.43086 -0.562897,4.83608 -0.67803,7.27973 -0.255797,5.82119 4.759319,11.7064 10.388588,12.8834 0.243225,0.0388 0.473393,0.0637 0.690894,0.26886 z"
           id="path18"
           style="fill:#ffffff;stroke-width:1.27938" />
        <path
           class="st3"
           d="m 111.89412,211.61858 c 0.0388,1.38173 -0.17892,2.44361 -1.10026,3.28801 -0.93397,0.86996 -1.98304,1.02348 -3.13451,0.63969 -0.78039,-0.2558 -1.18982,-0.78044 -1.35615,-1.63763 -0.37089,-1.98304 -0.37089,-3.87649 0.55012,-5.74445 0.40958,-0.83161 0.98514,-1.40733 1.76559,-1.84232 0.53731,-0.30707 0.86998,0.0242 1.21539,0.34524 1.44571,1.42015 2.22617,3.10894 2.05982,4.95124 z"
           id="path20"
           style="fill:#ffffff;stroke-width:1.27938" />
        <path
           class="st3"
           d="m 84.591999,196.96959 c -0.29448,1.06186 -0.140714,2.0982 0.02417,3.12168 0.293997,1.77835 0.35831,3.58232 0.191969,5.37344 -0.08946,0.92115 -0.601292,1.45851 -1.304951,1.48409 -0.793211,0.0242 -1.688791,-0.58852 -1.739951,-1.40731 -0.217595,-3.05776 -0.307051,-6.11548 1.675978,-8.75102 0.550131,-0.74205 0.742053,-1.47128 0.332681,-2.34129 -0.217597,-0.4734 -0.370882,-0.98512 -0.370882,-1.50968 0,-0.44777 0.166341,-0.80602 0.62692,-0.92115 0.447766,-0.1025 0.831557,-0.0637 1.11303,0.40955 1.471292,2.40527 1.701605,5.0792 1.727185,7.80427 0,0.23017 -0.02417,0.48616 -0.332681,0.52456 -0.332681,0.0512 -0.473395,-0.16633 -0.562947,-0.4352 -0.255797,-0.74204 -0.498923,-1.48409 -0.767632,-2.21334 -0.153277,-0.39649 -0.20454,-0.84437 -0.614105,-1.13866 z"
           id="path22"
           style="fill:#ffffff;stroke-width:1.27938" />
        <path
           class="st3"
           d="m 97.628983,207.70363 c -0.07686,1.21544 -0.166348,2.43083 -0.230176,3.64628 -0.06386,1.08744 -0.614102,1.99585 -1.087501,2.91701 -0.550125,1.04905 -1.816736,0.98512 -2.456421,-0.0142 -0.383939,-0.58853 -0.67808,-1.21545 -0.665257,-1.94467 0.06386,-1.98304 -0.191969,-4.00452 0.869999,-5.8596 0.319624,-0.55014 0.703651,-0.98513 1.228204,-1.30499 1.228217,-0.74205 2.264502,-0.17892 2.315669,1.25379 0.01437,0.43517 0,0.87 0,1.30499 0.01437,0 0.02412,0 0.02412,0 z"
           id="path24"
           style="fill:#ffffff;stroke-width:1.27938" />
        <path
           class="st3"
           d="m 99.151428,212.70601 c 0.191969,-2.52034 0.217603,-4.31151 1.548082,-5.70606 0.37088,-0.39649 0.76762,-0.78039 1.34335,-0.57571 0.66525,0.24323 1.18981,0.67809 1.40731,1.42015 0.63968,2.29007 0.29399,4.59296 0.0241,6.89586 -0.14071,1.16424 -1.2282,1.54808 -2.32848,0.81885 -1.266595,-0.84441 -2.174937,-1.93193 -1.99584,-2.85309 z"
           id="path26"
           style="fill:#ffffff;stroke-width:1.27938" />
        <path
           class="st3"
           d="m 87.956811,205.95086 c 0.140716,-1.34334 -0.03874,-2.73785 0.690853,-3.97887 0.166337,-0.26887 0.255797,-0.63971 0.601329,-0.69086 0.409573,-0.0512 0.601292,0.30706 0.767641,0.60129 0.69084,1.20264 0.831605,2.57156 1.113022,3.90215 0.524555,2.49482 0.511794,4.93841 -0.51173,7.33087 -0.128143,0.29448 -0.153276,0.66526 -0.575709,0.63969 -0.383938,-0.0142 -0.678079,-0.24323 -0.754867,-0.61411 -0.562898,-2.35407 -1.650399,-4.64413 -1.330539,-7.19016 z"
           id="path28"
           style="fill:#ffffff;stroke-width:1.27938" />
        <path
           class="st3"
           d="m 113.25028,212.46294 c 0.46033,-1.88068 0.20453,-3.92772 1.27936,-5.69324 0.2176,-0.37088 0.42214,-0.81884 0.95956,-0.72925 0.52456,0.0895 0.92116,0.4352 1.06194,0.93392 0.30703,1.13868 0.67801,2.22616 0.70364,3.46714 0.0142,1.02353 0.12817,2.04706 0.1025,3.08335 -0.0388,1.21539 -0.43521,1.84232 -1.35618,2.02142 -0.80601,0.15322 -2.16218,-0.63969 -2.46924,-1.44571 -0.20453,-0.52456 -0.24322,-1.0747 -0.28141,-1.63763 z"
           id="path30"
           style="fill:#ffffff;stroke-width:1.27938" />
        <path
           class="st3"
           d="m 123.08879,204.77386 c -0.24323,2.92977 -0.4352,5.74444 -1.52251,8.37996 -0.14069,0.34527 -0.21759,0.78041 -0.65249,0.84439 -0.52451,0.0637 -0.58848,-0.44778 -0.83157,-0.75483 -0.62691,-0.74206 -0.51178,-1.6248 -0.56293,-2.48199 -0.17891,-2.87862 0.31962,-5.56535 2.20052,-7.86824 0.19198,-0.24323 0.3583,-0.62694 0.72923,-0.49898 0.30707,0.1025 0.42215,0.44775 0.46082,0.78044 0.0637,0.57572 0.12817,1.15142 0.17893,1.59925 z"
           id="path32"
           style="fill:#ffffff;stroke-width:1.27938" />
        <path
           class="st3"
           d="m 149.2522,177.22866 c -0.30706,3.24964 -0.71643,6.40971 -2.25169,9.28832 -0.29399,0.55014 -0.60135,1.06192 -1.16423,1.36898 -0.61412,0.34525 -0.95956,0.1537 -0.89559,-0.56296 0.0637,-0.78039 0.16634,-1.56084 0.34525,-2.32849 0.60129,-2.57154 1.177,-5.14315 2.11098,-7.62514 0.16634,-0.43519 0.39651,-0.84438 0.62692,-1.24099 0.16633,-0.2814 0.42213,-0.52456 0.7804,-0.42212 0.37088,0.1025 0.43519,0.42212 0.43519,0.76761 0,0.29401 0.0142,0.55014 0.0142,0.75483 z"
           id="path34"
           style="fill:#ffffff;stroke-width:1.27938" />
        <path
           class="st3"
           d="m 124.48329,206.62893 c 0.29399,-2.4052 0.95955,-4.69534 1.90628,-6.92145 0.1025,-0.24323 0.26886,-0.4734 0.57571,-0.46034 0.35832,0.0143 0.49899,0.29399 0.52456,0.6013 0.16634,1.54807 0.52456,3.12174 0.40956,4.657 -0.1025,1.48404 -1.08744,2.72507 -2.07257,3.83815 -0.40956,0.46034 -0.84443,0.29401 -1.07469,-0.2558 -0.17891,-0.47338 -0.29399,-0.95954 -0.26885,-1.45852 z"
           id="path36"
           style="fill:#ffffff;stroke-width:1.27938" />
        <path
           class="st3"
           d="m 57.149168,177.90672 c -0.05126,-0.60131 0.05126,-1.13865 0.37088,-1.61205 0.293996,-0.43518 0.678079,-0.74205 1.22821,-0.62687 0.550134,0.11511 0.818793,0.52456 0.87,1.06187 0.06383,0.57574 0.102519,1.15148 0.153278,1.72719 0.140714,2.047 0.754819,3.9149 1.944636,5.59093 0.140715,0.19197 0.460337,0.37088 0.191969,0.66527 -0.230168,0.2558 -0.537319,0.16634 -0.793211,0.0142 -1.356158,-0.80603 -2.354057,-1.97027 -3.096109,-3.33918 -0.588525,-1.0747 -0.87,-2.27733 -0.87,-3.47996 z"
           id="path38"
           style="fill:#ffffff;stroke-width:1.27938" />
        <path
           class="st3"
           d="m 152.78331,176.10281 c -0.12816,2.54597 -0.67804,5.00239 -1.43291,7.42043 -0.12817,0.40954 -0.33269,0.79321 -0.49898,1.20262 -0.15321,0.35832 -0.38391,0.74205 -0.80597,0.61412 -0.39651,-0.11499 -0.43519,-0.58854 -0.38394,-0.95955 0.1025,-0.92118 0.20455,-1.84233 0.37088,-2.76349 0.33269,-1.85513 0.61412,-3.72302 0.83163,-5.60373 0.0895,-0.79321 0.39648,-1.44567 1.1898,-1.77834 0.51175,-0.2176 0.70367,-0.0142 0.72925,0.46034 0.0142,0.47338 0,0.94677 0,1.40735 z"
           id="path40"
           style="fill:#ffffff;stroke-width:1.27938" />
        <path
           class="st3"
           d="m 80.651521,194.94817 c 0.03868,1.07469 0.01444,2.14935 -0.115082,3.21122 -0.0387,0.31964 -0.07689,0.6909 -0.460822,0.74206 -0.383936,0.0512 -0.537365,-0.30704 -0.665311,-0.58851 -0.985131,-2.23892 -1.113031,-4.593 -0.89558,-6.99824 0.03869,-0.35832 0.166341,-0.69086 0.588526,-0.76765 0.498974,-0.0895 0.844421,0.16635 1.087499,0.55013 0.358309,0.58853 0.435192,1.2538 0.460822,1.91911 0.02417,0.66527 0,1.30496 0,1.93188 z"
           id="path42"
           style="fill:#ffffff;stroke-width:1.27938" />
        <path
           class="st3"
           d="m 64.492854,178.63597 c -0.16634,2.07263 0.742053,3.76142 1.970264,5.32226 0.243224,0.31962 0.921157,0.63969 0.422137,1.12585 -0.460337,0.4352 -0.857184,-0.14071 -1.164238,-0.42215 -1.63763,-1.49686 -2.712316,-3.3136 -2.917001,-5.56534 -0.05126,-0.52455 0.02417,-1.0491 0.255798,-1.53525 0.178912,-0.38395 0.447765,-0.72925 0.921156,-0.61411 0.422139,0.1025 0.537319,0.48617 0.51174,0.89557 -0.01444,0.26887 0,0.52456 0,0.79321 z"
           id="path44"
           style="fill:#ffffff;stroke-width:1.27938" />
        <path
           class="st3"
           d="m 131.43037,191.32751 c 0.92116,-0.0242 1.22821,0.40954 0.79321,1.25379 -0.79321,1.52245 -1.75277,2.95539 -2.27732,4.61856 -0.0637,0.20453 -0.23016,0.44775 -0.49893,0.38393 -0.30706,-0.0637 -0.38393,-0.34526 -0.34525,-0.61412 0.2176,-1.59917 0.39651,-3.21122 0.70365,-4.79765 0.15324,-0.83161 0.95953,-0.79321 1.62483,-0.84441 z"
           id="path46"
           style="fill:#ffffff;stroke-width:1.27938" />
        <path
           class="st3"
           d="m 69.879092,183.21618 c -0.0387,0.31962 0.02417,0.65249 -0.255795,0.75483 -0.255798,0.10249 -0.39651,-0.17891 -0.537367,-0.35832 -1.010713,-1.22821 -1.803924,-2.55873 -2.047004,-4.17078 -0.115082,-0.71643 -0.01444,-1.39452 0.281425,-2.03425 0.15377,-0.33269 0.358309,-0.742 0.805978,-0.67802 0.498972,0.0769 0.678079,0.51173 0.729286,0.95951 0.06383,0.5501 0.128136,1.10024 0.128136,1.65043 0,1.177 0.02417,2.32846 0.729237,3.33918 0.128137,0.17891 0.128137,0.40958 0.166343,0.53733 z"
           id="path48"
           style="fill:#ffffff;stroke-width:1.27938" />
        <path
           class="st3"
           d="m 61.716565,170.56304 c -0.01444,0.71649 -0.946738,1.45847 -1.803923,1.45847 -0.652499,0 -1.304951,-0.70365 -1.292185,-1.38173 0.01444,-0.62686 0.946739,-1.35611 1.71437,-1.34334 0.79326,0.0242 1.394552,0.56293 1.381738,1.2666 z"
           id="path50"
           style="fill:#ffffff;stroke-width:1.27938" />
        <path
           class="st3"
           d="m 64.684774,173.3649 c -0.678079,0.0242 -1.049105,-0.28143 -1.061917,-0.95954 -0.01444,-0.70366 0.729286,-1.61206 1.304997,-1.62482 0.716424,-0.0242 1.509684,0.69085 1.52245,1.38173 0.01444,0.61412 -0.844371,1.18983 -1.76553,1.20263 z"
           id="path52"
           style="fill:#ffffff;stroke-width:1.27938" />
        <path
           class="st3"
           d="m 68.932307,174.28607 c -0.53732,-0.0142 -0.92116,-0.17892 -1.125844,-0.70366 -0.204542,-0.52454 -0.02417,-0.80602 0.383936,-1.16424 0.409564,-0.35831 0.793211,-0.6141 1.317765,-0.7037 0.690892,-0.11498 0.895579,0.0637 0.678079,0.7037 -0.153278,0.47339 -0.447765,0.88278 -0.396509,1.47129 0.05126,0.51173 -0.588526,0.2558 -0.857186,0.39652 z"
           id="path54"
           style="fill:#ffffff;stroke-width:1.27938" />
        <path
           class="st3"
           d="m 73.563727,173.24974 c 0.01444,1.38173 -0.370883,1.76556 -1.368972,1.40736 -0.601293,-0.2176 -0.818791,-0.63975 -0.588525,-1.22822 0.102519,-0.25579 0.281424,-0.49896 0.473391,-0.71647 0.281426,-0.30705 0.550133,-0.71648 1.0875,-0.53736 0.601291,0.20454 0.307053,0.72928 0.396509,1.07469 z"
           id="path56"
           style="fill:#ffffff;stroke-width:1.27938" />
        <path
           class="st2"
           d="m 95.722687,74.353147 c -0.07686,0.15377 -0.204542,0.217597 -0.370879,0.191967 0.07686,-0.166339 0.19197,-0.230168 0.370879,-0.191967 z"
           id="path58"
           style="fill:#53508b;stroke-width:1.27938" />
        <path
           class="st2"
           d="m 97.040452,73.623909 c -0.05124,0.115082 -0.140715,0.178913 -0.28143,0.140714 0.05124,-0.128137 0.153288,-0.166341 0.28143,-0.140714 z"
           id="path60"
           style="fill:#53508b;stroke-width:1.27938" />
        <path
           class="st2"
           d="m 96.387956,73.982121 c -0.06386,0.140714 -0.166348,0.191967 -0.307051,0.166341 0.05124,-0.140715 0.166336,-0.178913 0.307051,-0.166341 z"
           id="path62"
           style="fill:#53508b;stroke-width:1.27938" />
        <path
           class="st2"
           d="m 88.327841,137.15827 c -0.115108,0 -0.204543,-0.0388 -0.191971,-0.16635 0,-0.0512 0.102488,-0.0895 0.166349,-0.12813 0.01437,0.1151 0.01437,0.20454 0.02413,0.29448 z"
           id="path64"
           style="fill:#53508b;stroke-width:1.27938" />
        <polygon
           class="st1"
           points="227.42,71.03 227.43,71.02 227.41,71 "
           id="polygon66"
           style="fill:#e70235"
           transform="matrix(1.2793867,0,0,1.2793867,-142.24326,-62.029467)" />
        <path
           class="st2"
           d="m 91.180873,138.59116 c -0.06386,0 -0.08948,-0.0388 -0.08948,-0.0895 0.06386,0 0.08948,0.0242 0.08948,0.0895 z"
           id="path68"
           style="fill:#53508b;stroke-width:1.27938" />
        <path
           class="st2"
           d="m 89.952657,137.93866 c -0.102488,0.0387 -0.153763,0 -0.19197,-0.1025 0.06386,0.0388 0.128142,0.0769 0.19197,0.1025 z"
           id="path70"
           style="fill:#53508b;stroke-width:1.27938" />
        <path
           class="st2"
           d="m 89.607212,137.77237 c -0.08948,0.0242 -0.153763,0 -0.191969,-0.1025 0.06386,0.0388 0.128141,0.0639 0.191969,0.1025 z"
           id="path72"
           style="fill:#53508b;stroke-width:1.27938" />
        <path
           class="st2"
           d="m 88.903548,137.43973 c -0.102487,0.0242 -0.166335,0 -0.20453,-0.0895 0.102488,-0.0387 0.166337,-0.0144 0.20453,0.0895 z"
           id="path74"
           style="fill:#53508b;stroke-width:1.27938" />
        <path
           class="st2"
           d="m 94.711973,74.90328 c -0.06386,0.0387 -0.140715,0.07689 -0.204542,0.128135 0.06386,-0.05126 0.128142,-0.08946 0.204542,-0.128135 z"
           id="path76"
           style="fill:#53508b;stroke-width:1.27938" />
        <path
           class="st2"
           d="m 97.859246,73.16333 c -0.06386,0.03869 -0.140715,0.07689 -0.204542,0.115081 0.06386,-0.0387 0.12813,-0.07689 0.204542,-0.115081 z"
           id="path78"
           style="fill:#53508b;stroke-width:1.27938" />
        <path
           class="st2"
           d="m 98.511743,72.779537 c -0.02412,0.102519 -0.07687,0.140715 -0.178909,0.115082 0.06386,-0.0387 0.115106,-0.07689 0.178909,-0.115082 z"
           id="path80"
           style="fill:#53508b;stroke-width:1.27938" />
        <path
           class="st0"
           d="m 104.0387,189.4084 c -0.14072,1.80391 -0.30706,3.71022 -1.22822,5.45021 -0.43519,0.83162 -0.95954,0.89558 -1.50968,0.1407 -1.07469,-1.44572 -1.880715,-3.05778 -2.71227,-4.657 -0.166336,-0.31963 -0.166336,-0.67807 -0.06386,-1.02348 0.703662,-2.43084 1.023474,-4.93841 1.50963,-7.42048 0.16634,-0.8188 0.44777,-1.59923 0.34526,-2.4692 -0.0769,-0.61408 0.40956,-0.78043 0.90839,-0.38392 0.57571,0.46081 0.93392,1.11307 1.17705,1.79112 0.98508,2.7507 1.39451,5.57815 1.57361,8.57188 z"
           id="path82"
           style="fill:#3f3632;stroke-width:1.27938" />
        <path
           class="st0"
           d="m 110.02622,193.92463 c -0.0387,0.0388 -0.0895,0.0637 -0.1407,0.0769 -0.19197,-0.0512 -0.33268,0 -0.3965,0.20455 -0.1025,0.0512 -0.20454,0.1025 -0.29448,0.1537 -0.43519,0.0142 -0.7804,0.16634 -0.90834,0.62691 0,0 -0.0242,0.0142 -0.0242,0.0142 -0.52455,0.21761 -1.02352,0.0637 -1.50968,-0.15369 -0.0512,-0.0388 -0.0769,-0.0895 -0.0895,-0.14071 -0.0144,-0.43518 -0.20455,-0.78044 -0.49898,-1.08749 -1.35615,-4.59297 -0.8316,-8.9173 1.85513,-12.93461 0.0242,-0.0512 0.0638,-0.0895 0.11511,-0.12817 0.40957,-0.34525 0.84437,-0.9979 1.35617,-0.71641 0.44776,0.2432 -0.0512,0.86994 -0.1151,1.33052 -0.0512,0.31962 -0.17892,0.62691 -0.16635,0.93396 0.16635,3.21126 0.26886,6.4353 2.08541,9.28833 0.71641,1.12589 0.43517,1.71441 -1.04913,2.44365 -0.0895,0.0142 -0.15369,0.0512 -0.21758,0.0895 z"
           id="path84"
           style="fill:#3f3632;stroke-width:1.27938" />
        <path
           class="st2"
           d="m 106.73819,194.83304 c 0.48616,0.21757 0.97232,0.37088 1.50969,0.1537 -0.56294,0.51175 -1.0875,0.60131 -1.50969,-0.1537 z"
           id="path86"
           style="fill:#53508b;stroke-width:1.27938" />
        <path
           class="st2"
           d="m 106.14967,193.59199 c 0.29449,0.30707 0.48615,0.6525 0.49897,1.08752 -0.30704,-0.29449 -0.49897,-0.65251 -0.49897,-1.08752 z"
           id="path88"
           style="fill:#53508b;stroke-width:1.27938" />
        <path
           class="st2"
           d="m 108.27347,194.96093 c 0.12812,-0.46034 0.47337,-0.61411 0.90838,-0.62688 -0.26886,0.2558 -0.55018,0.51174 -0.90838,0.62688 z"
           id="path90"
           style="fill:#53508b;stroke-width:1.27938" />
        <path
           class="st2"
           d="m 109.4761,194.19329 c 0.0637,-0.19196 0.20453,-0.2558 0.39651,-0.20454 -0.077,0.17891 -0.2176,0.2176 -0.39651,0.20454 z"
           id="path92"
           style="fill:#53508b;stroke-width:1.27938" />
        <path
           class="st0"
           d="m 165.82028,133.98537 c 0.0143,-0.0512 0.0242,-0.10249 0.0242,-0.15377 0.0242,0.0144 0.0387,0.0242 0.0637,0.0387 -0.0388,0.0242 -0.077,0.0638 -0.1025,0.0895 z"
           id="path94"
           style="fill:#3f3632;stroke-width:1.27938" />
        <path
           class="st2"
           d="m 110.02622,193.92463 c 0.0637,-0.0387 0.12817,-0.0769 0.19197,-0.1151 -0.0242,0.1025 -0.0895,0.14069 -0.19197,0.1151 z"
           id="path96"
           style="fill:#53508b;stroke-width:1.27938" />
      </g>
    </g>
  </g>
</svg>
